<?xml version="1.0" encoding="UTF-8"?>
<svg enable-background="new 0 0 174 40" version="1.1" viewBox="0 0 174 40" xmlns="http://www.w3.org/2000/svg">
 <style type="text/css">.st0{fill:url(#SVGID_1_);}
	.st1{fill:#FFFFFF;}</style>
 <linearGradient id="SVGID_1_" x1="10.283" x2="37.762" y1="34.303" y2="5.8518" gradientUnits="userSpaceOnUse">
  <stop stop-color="#B15FFC" offset="0"/>
  <stop stop-color="#9768F8" offset=".0874"/>
  <stop stop-color="#567FEF" offset=".2742"/>
  <stop stop-color="#009EE2" offset=".4972"/>
  <stop stop-color="#75D8EF" offset=".986"/>
 </linearGradient>
 <path class="st0" d="m44.55 29.74c-0.12-0.45-0.28-0.87-0.46-1.28-0.01-0.02-0.02-0.05-0.03-0.07-0.2-0.41-0.43-0.79-0.69-1.14-0.02-0.03-0.04-0.06-0.06-0.08-0.27-0.36-0.58-0.7-0.91-1l-0.07-0.07c-0.02-0.02-0.04-0.03-0.05-0.05 0 0-3.31-2.72-3.31-5.88 0-3.24 3.31-6.24 3.31-6.24h-0.05c1.44-1.25 2.57-2.96 2.37-5.84-0.17-2.5-1.39-4.87-3.58-6.1-3.48-1.96-7.91-0.78-9.95 2.68-1.82 3.1-1.11 6.98 1.5 9.26h-0.02s3.31 2.72 3.31 5.88c0 0.67-0.14 1.33-0.37 1.96-0.47 1.3-1.39 2.43-2.62 3.06-4.41 2.22-7.37-3.29-9.1-5.34-5.49-6.54-5.65-11.54-5.65-11.54l-0.02 0.02c-0.06-0.93-0.28-1.88-0.75-2.81-1.65-3.25-5.6-4.9-9.04-3.69-3.57 1.26-5.64 5.06-4.67 8.78 0.38 1.48 1.19 2.74 2.27 3.68 0 0 3.31 2.72 3.31 5.88 0 3.24-3.31 6.24-3.31 6.24h0.05c-1.44 1.25-2.57 2.96-2.38 5.84 0.17 2.5 1.39 4.87 3.57 6.1 3.49 1.97 7.92 0.79 9.96-2.68 1.82-3.1 1.11-6.98-1.5-9.26h0.02s-3.07-2.54-3.27-5.57c-0.07-0.47-0.09-0.7-0.09-0.89 0-2.41 1.96-4.37 4.37-4.37 0.25 0 2.05-0.02 3.24 1.46 0.87 1.09 1.4 2.06 2.23 3.58 5.89 10.77 9.42 15.71 9.44 15.74 0.27 0.36 0.58 0.7 0.91 1l0.07 0.07c0.73 0.65 1.58 1.15 2.51 1.48 0.03 0.01 0.06 0.02 0.09 0.03 0.43 0.14 0.86 0.25 1.31 0.31 0.03 0 0.07 0.01 0.1 0.01 0.44 0.05 0.88 0.07 1.33 0.05 0.02 0 0.05-0.01 0.07-0.01 0.45-0.03 0.89-0.1 1.34-0.21 0.45-0.12 0.87-0.28 1.28-0.46 0.02-0.01 0.05-0.02 0.07-0.03 0.41-0.2 0.79-0.43 1.14-0.69 0.03-0.02 0.06-0.04 0.08-0.06 0.36-0.27 0.7-0.58 1-0.91l0.07-0.07c0.65-0.73 1.15-1.58 1.48-2.51l0.03-0.09c0.14-0.43 0.25-0.86 0.31-1.31 0-0.03 0.01-0.07 0.01-0.1 0.05-0.44 0.07-0.88 0.05-1.33 0-0.02-0.01-0.05-0.01-0.07-0.06-0.46-0.12-0.91-0.24-1.36z"/>
 <g fill="#fff">
  <path class="st1" d="m83.66 31.92h-5.22v-12.04c0-0.68-0.12-1.29-0.35-1.84-0.24-0.54-0.55-1.01-0.95-1.4s-0.87-0.69-1.41-0.89c-0.54-0.21-1.13-0.31-1.76-0.31h-9.13v16.48h-5.22v-19.11c0-0.36 0.07-0.7 0.2-1.01s0.32-0.59 0.56-0.82c0.24-0.24 0.52-0.42 0.84-0.55s0.66-0.2 1.02-0.2h11.76c0.66 0 1.35 0.07 2.08 0.22s1.45 0.38 2.17 0.71 1.4 0.74 2.05 1.24 1.22 1.11 1.73 1.83c0.5 0.72 0.9 1.54 1.2 2.48 0.29 0.94 0.44 1.99 0.44 3.17v12.04z"/>
  <path class="st1" d="m138.53 29.29c0 0.38-0.07 0.72-0.2 1.04s-0.32 0.6-0.55 0.83c-0.24 0.24-0.51 0.42-0.82 0.55s-0.65 0.2-1.01 0.2h-11.8c-0.64 0-1.33-0.07-2.06-0.22s-1.45-0.38-2.16-0.71-1.4-0.74-2.06-1.24-1.24-1.11-1.73-1.83c-0.49-0.71-0.89-1.54-1.2-2.48-0.3-0.94-0.45-1.99-0.45-3.17v-12.03h5.22v12.04c0 0.68 0.12 1.29 0.35 1.84 0.23 0.54 0.55 1.01 0.95 1.4s0.87 0.69 1.42 0.89 1.13 0.31 1.76 0.31h9.13v-16.48h5.22v19.06z"/>
  <path class="st1" d="m161.85 15.44h-11.74c-0.71 0-1.24 0.18-1.61 0.53-0.36 0.35-0.54 0.87-0.54 1.56v14.39h-5.22v-14.39c0-0.9 0.11-1.7 0.34-2.41s0.53-1.33 0.91-1.88c0.38-0.54 0.82-1 1.32-1.39 0.49-0.38 1.01-0.69 1.56-0.93 0.54-0.24 1.09-0.42 1.65-0.53s1.07-0.17 1.56-0.17h11.78v5.22z"/>
  <path class="st1" d="m168.23 5.77h-0.5c-1.3 0-2.36-1.06-2.36-2.36s1.06-2.36 2.36-2.36h0.5c1.3 0 2.36 1.06 2.36 2.36s-1.06 2.36-2.36 2.36z"/>
  <rect class="st1" x="165.37" y="10.23" width="5.22" height="21.7"/>
  <path class="st1" d="m111.29 17.41c0 0.72-0.13 1.5-0.38 2.34s-0.66 1.61-1.23 2.33c-0.57 0.71-1.31 1.31-2.23 1.8s-2.03 0.72-3.34 0.72h-9.41v-4.96h9.41c0.71 0 1.26-0.22 1.65-0.65 0.39-0.44 0.58-0.98 0.58-1.62 0-0.68-0.22-1.22-0.65-1.61-0.44-0.39-0.96-0.58-1.58-0.58h-9.41c-0.71 0-1.26 0.22-1.65 0.65-0.39 0.44-0.58 0.98-0.58 1.62v7.29c0 0.7 0.22 1.24 0.65 1.63s0.97 0.58 1.61 0.58h9.37v4.98h-9.41c-0.72 0-1.5-0.13-2.34-0.38s-1.61-0.66-2.33-1.24c-0.72-0.57-1.32-1.31-1.8-2.23s-0.72-2.03-0.72-3.34v-7.33c0-0.72 0.13-1.5 0.38-2.34 0.25-0.83 0.67-1.61 1.24-2.33s1.31-1.32 2.23-1.8 2.03-0.72 3.34-0.72h9.41c0.72 0 1.5 0.13 2.34 0.38s1.61 0.66 2.33 1.24c0.72 0.57 1.32 1.31 1.8 2.23s0.72 2.03 0.72 3.34z"/>
 </g>
</svg>
