<?xml version="1.0" encoding="utf-8"?>
<!-- Generator: Adobe Illustrator 26.3.1, SVG Export Plug-In . SVG Version: 6.00 Build 0)  -->
<svg version="1.1" id="Capa_1" xmlns="http://www.w3.org/2000/svg" xmlns:xlink="http://www.w3.org/1999/xlink" x="0px" y="0px"
	 viewBox="0 0 174 40" style="enable-background:new 0 0 174 40;" xml:space="preserve">
<style type="text/css">
	.st0{fill:url(#SVGID_1_);}
	.st1{fill:#172641;}
</style>
<g>
	<linearGradient id="SVGID_1_" gradientUnits="userSpaceOnUse" x1="10.2834" y1="34.3027" x2="37.7616" y2="5.8518">
		<stop  offset="0" style="stop-color:#B15FFC"/>
		<stop  offset="0.0874" style="stop-color:#9768F8"/>
		<stop  offset="0.2742" style="stop-color:#567FEF"/>
		<stop  offset="0.4972" style="stop-color:#009EE2"/>
		<stop  offset="0.986" style="stop-color:#75D8EF"/>
	</linearGradient>
	<path class="st0" d="M44.55,29.74C44.55,29.74,44.55,29.74,44.55,29.74c-0.12-0.45-0.28-0.87-0.46-1.28
		c-0.01-0.02-0.02-0.05-0.03-0.07c-0.2-0.41-0.43-0.79-0.69-1.14c-0.02-0.03-0.04-0.06-0.06-0.08c-0.27-0.36-0.58-0.7-0.91-1
		c-0.02-0.02-0.04-0.04-0.07-0.07c-0.02-0.02-0.04-0.03-0.05-0.05h0c0,0-3.31-2.72-3.31-5.88c0-3.24,3.31-6.24,3.31-6.24h-0.05
		c1.44-1.25,2.57-2.96,2.37-5.84c-0.17-2.5-1.39-4.87-3.58-6.1c-3.48-1.96-7.91-0.78-9.95,2.68c-1.82,3.1-1.11,6.98,1.5,9.26h-0.02
		c0,0,3.31,2.72,3.31,5.88c0,0.67-0.14,1.33-0.37,1.96c-0.47,1.3-1.39,2.43-2.62,3.06c-4.41,2.22-7.37-3.29-9.1-5.34
		c-5.49-6.54-5.65-11.54-5.65-11.54l-0.02,0.02c-0.06-0.93-0.28-1.88-0.75-2.81c-1.65-3.25-5.6-4.9-9.04-3.69
		c-3.57,1.26-5.64,5.06-4.67,8.78c0.38,1.48,1.19,2.74,2.27,3.68h0c0,0,3.31,2.72,3.31,5.88c0,3.24-3.31,6.24-3.31,6.24h0.05
		c-1.44,1.25-2.57,2.96-2.38,5.84c0.17,2.5,1.39,4.87,3.57,6.1c3.49,1.97,7.92,0.79,9.96-2.68c1.82-3.1,1.11-6.98-1.5-9.26h0.02
		c0,0-3.07-2.54-3.27-5.57c-0.07-0.47-0.09-0.7-0.09-0.89c0-2.41,1.96-4.37,4.37-4.37c0.25,0,2.05-0.02,3.24,1.46
		c0.87,1.09,1.4,2.06,2.23,3.58c5.89,10.77,9.42,15.71,9.44,15.74c0.27,0.36,0.58,0.7,0.91,1c0.02,0.02,0.04,0.04,0.07,0.07
		c0.73,0.65,1.58,1.15,2.51,1.48c0.03,0.01,0.06,0.02,0.09,0.03c0.43,0.14,0.86,0.25,1.31,0.31c0.03,0,0.07,0.01,0.1,0.01
		c0.44,0.05,0.88,0.07,1.33,0.05c0.02,0,0.05-0.01,0.07-0.01c0.45-0.03,0.89-0.1,1.34-0.21c0.45-0.12,0.87-0.28,1.28-0.46
		c0.02-0.01,0.05-0.02,0.07-0.03c0.41-0.2,0.79-0.43,1.14-0.69c0.03-0.02,0.06-0.04,0.08-0.06c0.36-0.27,0.7-0.58,1-0.91
		c0.02-0.02,0.04-0.04,0.07-0.07c0.65-0.73,1.15-1.58,1.48-2.51c0.01-0.03,0.02-0.06,0.03-0.09c0.14-0.43,0.25-0.86,0.31-1.31
		c0-0.03,0.01-0.07,0.01-0.1c0.05-0.44,0.07-0.88,0.05-1.33c0-0.02-0.01-0.05-0.01-0.07C44.73,30.64,44.67,30.19,44.55,29.74z"/>
	<g>
		<path class="st1" d="M83.66,31.92h-5.22V19.88c0-0.68-0.12-1.29-0.35-1.84c-0.24-0.54-0.55-1.01-0.95-1.4
			c-0.4-0.39-0.87-0.69-1.41-0.89c-0.54-0.21-1.13-0.31-1.76-0.31h-9.13v16.48h-5.22V12.81c0-0.36,0.07-0.7,0.2-1.01
			c0.13-0.31,0.32-0.59,0.56-0.82c0.24-0.24,0.52-0.42,0.84-0.55c0.32-0.13,0.66-0.2,1.02-0.2H74c0.66,0,1.35,0.07,2.08,0.22
			c0.73,0.15,1.45,0.38,2.17,0.71c0.72,0.33,1.4,0.74,2.05,1.24c0.65,0.5,1.22,1.11,1.73,1.83c0.5,0.72,0.9,1.54,1.2,2.48
			c0.29,0.94,0.44,1.99,0.44,3.17V31.92z"/>
		<path class="st1" d="M138.53,29.29c0,0.38-0.07,0.72-0.2,1.04c-0.13,0.32-0.32,0.6-0.55,0.83c-0.24,0.24-0.51,0.42-0.82,0.55
			c-0.31,0.13-0.65,0.2-1.01,0.2h-11.8c-0.64,0-1.33-0.07-2.06-0.22c-0.73-0.15-1.45-0.38-2.16-0.71c-0.71-0.33-1.4-0.74-2.06-1.24
			s-1.24-1.11-1.73-1.83c-0.49-0.71-0.89-1.54-1.2-2.48c-0.3-0.94-0.45-1.99-0.45-3.17V10.23h5.22v12.04c0,0.68,0.12,1.29,0.35,1.84
			c0.23,0.54,0.55,1.01,0.95,1.4c0.4,0.39,0.87,0.69,1.42,0.89s1.13,0.31,1.76,0.31h9.13V10.23h5.22V29.29z"/>
		<path class="st1" d="M161.85,15.44h-11.74c-0.71,0-1.24,0.18-1.61,0.53c-0.36,0.35-0.54,0.87-0.54,1.56v14.39h-5.22V17.53
			c0-0.9,0.11-1.7,0.34-2.41c0.23-0.71,0.53-1.33,0.91-1.88c0.38-0.54,0.82-1,1.32-1.39c0.49-0.38,1.01-0.69,1.56-0.93
			c0.54-0.24,1.09-0.42,1.65-0.53c0.56-0.11,1.07-0.17,1.56-0.17h11.78V15.44z"/>
		<path class="st1" d="M168.23,5.77h-0.5c-1.3,0-2.36-1.06-2.36-2.36v0c0-1.3,1.06-2.36,2.36-2.36h0.5c1.3,0,2.36,1.06,2.36,2.36v0
			C170.59,4.71,169.53,5.77,168.23,5.77z"/>
		<rect x="165.37" y="10.23" class="st1" width="5.22" height="21.7"/>
		<path class="st1" d="M111.29,17.41c0,0.72-0.13,1.5-0.38,2.34c-0.25,0.84-0.66,1.61-1.23,2.33c-0.57,0.71-1.31,1.31-2.23,1.8
			s-2.03,0.72-3.34,0.72h-9.41v-4.96h9.41c0.71,0,1.26-0.22,1.65-0.65c0.39-0.44,0.58-0.98,0.58-1.62c0-0.68-0.22-1.22-0.65-1.61
			c-0.44-0.39-0.96-0.58-1.58-0.58h-9.41c-0.71,0-1.26,0.22-1.65,0.65c-0.39,0.44-0.58,0.98-0.58,1.62v7.29
			c0,0.7,0.22,1.24,0.65,1.63c0.43,0.39,0.97,0.58,1.61,0.58h9.37v4.98h-9.41c-0.72,0-1.5-0.13-2.34-0.38
			c-0.84-0.25-1.61-0.66-2.33-1.24c-0.72-0.57-1.32-1.31-1.8-2.23c-0.48-0.92-0.72-2.03-0.72-3.34v-7.33c0-0.72,0.13-1.5,0.38-2.34
			c0.25-0.83,0.67-1.61,1.24-2.33c0.57-0.72,1.31-1.32,2.23-1.8c0.92-0.48,2.03-0.72,3.34-0.72h9.41c0.72,0,1.5,0.13,2.34,0.38
			c0.84,0.25,1.61,0.66,2.33,1.24c0.72,0.57,1.32,1.31,1.8,2.23C111.05,14.99,111.29,16.1,111.29,17.41z"/>
	</g>
</g>
</svg>
