<?xml version="1.0" encoding="UTF-8"?>
<!DOCTYPE svg PUBLIC "-//W3C//DTD SVG 1.1//EN" "http://www.w3.org/Graphics/SVG/1.1/DTD/svg11.dtd">
<svg xmlns="http://www.w3.org/2000/svg" version="1.1" width="1519px" height="1519px" style="shape-rendering:geometricPrecision; text-rendering:geometricPrecision; image-rendering:optimizeQuality; fill-rule:evenodd; clip-rule:evenodd" xmlns:xlink="http://www.w3.org/1999/xlink">
<g><path style="opacity:0.991" fill="#e9ebee" d="M 728.5,-0.5 C 733.5,-0.5 738.5,-0.5 743.5,-0.5C 727.833,15.5 712.167,31.5 696.5,47.5C 675.744,49.5151 655.077,52.1818 634.5,55.5C 633.448,55.6495 632.448,55.4828 631.5,55C 648.702,37.9652 665.702,20.7986 682.5,3.5C 697.901,1.78244 713.234,0.449109 728.5,-0.5 Z"/></g>
<g><path style="opacity:0.994" fill="#e6e8ec" d="M 743.5,-0.5 C 751.833,-0.5 760.167,-0.5 768.5,-0.5C 753.5,14.8333 738.5,30.1667 723.5,45.5C 714.52,46.3432 705.52,47.0099 696.5,47.5C 712.167,31.5 727.833,15.5 743.5,-0.5 Z"/></g>
<g><path style="opacity:0.991" fill="#e3e5ea" d="M 768.5,-0.5 C 775.167,-0.5 781.833,-0.5 788.5,-0.5C 801.027,0.430532 813.694,1.43053 826.5,2.5C 812.5,16.8333 798.5,31.1667 784.5,45.5C 764.167,45.5 743.833,45.5 723.5,45.5C 738.5,30.1667 753.5,14.8333 768.5,-0.5 Z"/></g>
<g><path style="opacity:0.991" fill="#dfe1e6" d="M 826.5,2.5 C 837.725,3.11957 848.725,4.45291 859.5,6.5C 845.5,19.8333 831.833,33.5 818.5,47.5C 807.181,46.6123 795.847,45.9456 784.5,45.5C 798.5,31.1667 812.5,16.8333 826.5,2.5 Z"/></g>
<g><path style="opacity:0.991" fill="#eeeff2" d="M 682.5,3.5 C 665.702,20.7986 648.702,37.9652 631.5,55C 632.448,55.4828 633.448,55.6495 634.5,55.5C 612.124,59.8365 589.791,64.8365 567.5,70.5C 586.833,50.8333 606.167,31.1667 625.5,11.5C 644.185,7.54526 663.185,4.87859 682.5,3.5 Z"/></g>
<g><path style="opacity:0.991" fill="#dcdfe4" d="M 859.5,6.5 C 871.272,7.51501 882.938,9.18168 894.5,11.5C 881.5,24.8333 868.5,38.1667 855.5,51.5C 843.167,50.1667 830.833,48.8333 818.5,47.5C 831.833,33.5 845.5,19.8333 859.5,6.5 Z"/></g>
<g><path style="opacity:0.992" fill="#f1f2f4" d="M 625.5,11.5 C 606.167,31.1667 586.833,50.8333 567.5,70.5C 542.644,78.008 517.977,86.3413 493.5,95.5C 516.833,71.8333 540.167,48.1667 563.5,24.5C 583.898,18.9005 604.565,14.5672 625.5,11.5 Z"/></g>
<g><path style="opacity:0.991" fill="#d8dce2" d="M 894.5,11.5 C 907.057,13.6763 919.39,16.3429 931.5,19.5C 919.167,32.1667 906.833,44.8333 894.5,57.5C 881.488,55.4971 868.488,53.4971 855.5,51.5C 868.5,38.1667 881.5,24.8333 894.5,11.5 Z"/></g>
<g><path style="opacity:0.991" fill="#d5d9df" d="M 931.5,19.5 C 940.241,21.1853 948.908,23.1853 957.5,25.5C 957.631,26.2389 957.464,26.9056 957,27.5C 944.965,39.3682 933.131,51.3682 921.5,63.5C 912.417,61.7507 903.417,59.7507 894.5,57.5C 906.833,44.8333 919.167,32.1667 931.5,19.5 Z"/></g>
<g><path style="opacity:0.991" fill="#f5f6f7" d="M 563.5,24.5 C 540.167,48.1667 516.833,71.8333 493.5,95.5C 457.273,110.447 422.273,127.78 388.5,147.5C 420.5,115.167 452.5,82.8333 484.5,50.5C 510.285,40.2384 536.618,31.5717 563.5,24.5 Z"/></g>
<g><path style="opacity:0.989" fill="#d2d6dd" d="M 957.5,25.5 C 970.43,28.9225 983.097,32.9225 995.5,37.5C 984.035,49.4651 972.369,61.2985 960.5,73C 961.056,73.3826 961.389,73.8826 961.5,74.5C 948.061,70.7538 934.728,67.0871 921.5,63.5C 933.131,51.3682 944.965,39.3682 957,27.5C 957.464,26.9056 957.631,26.2389 957.5,25.5 Z"/></g>
<g><path style="opacity:0.989" fill="#cdd1d9" d="M 995.5,37.5 C 1015.77,43.4793 1035.44,50.8127 1054.5,59.5C 1043.17,71.1667 1031.83,82.8333 1020.5,94.5C 1001.09,87.0308 981.425,80.3641 961.5,74.5C 961.389,73.8826 961.056,73.3826 960.5,73C 972.369,61.2985 984.035,49.4651 995.5,37.5 Z"/></g>
<g><path style="opacity:1" fill="#fefefe" d="M 723.5,45.5 C 743.833,45.5 764.167,45.5 784.5,45.5C 795.847,45.9456 807.181,46.6123 818.5,47.5C 830.833,48.8333 843.167,50.1667 855.5,51.5C 868.488,53.4971 881.488,55.4971 894.5,57.5C 903.417,59.7507 912.417,61.7507 921.5,63.5C 934.728,67.0871 948.061,70.7538 961.5,74.5C 981.425,80.3641 1001.09,87.0308 1020.5,94.5C 1030.05,98.7735 1039.71,102.774 1049.5,106.5C 1062.37,113.017 1075.37,119.351 1088.5,125.5C 1097.94,131.057 1107.61,136.39 1117.5,141.5C 1125.5,146.5 1133.5,151.5 1141.5,156.5C 1158.38,167.054 1174.72,178.387 1190.5,190.5C 1205.46,202.122 1220.12,214.122 1234.5,226.5C 1250.8,241.136 1266.47,256.469 1281.5,272.5C 1319.19,313.519 1351.86,358.186 1379.5,406.5C 1385.1,416.041 1390.44,425.708 1395.5,435.5C 1415.23,474.686 1431.23,515.353 1443.5,557.5C 1452.2,585.99 1458.86,614.99 1463.5,644.5C 1468.24,676.664 1471.24,708.997 1472.5,741.5C 1473.91,806.145 1466.91,869.811 1451.5,932.5C 1445.62,953.827 1439.28,975.16 1432.5,996.5C 1364.83,1178.34 1244.49,1313.17 1071.5,1401C 1046.87,1412.66 1021.87,1423.16 996.5,1432.5C 974.855,1439.61 953.188,1446.27 931.5,1452.5C 885.749,1463.06 839.416,1469.56 792.5,1472C 774.17,1472.5 755.836,1472.67 737.5,1472.5C 705.606,1471.65 673.939,1468.65 642.5,1463.5C 613.821,1458.6 585.488,1452.27 557.5,1444.5C 515.027,1431.76 474.027,1415.43 434.5,1395.5C 424.673,1390.42 415.006,1385.09 405.5,1379.5C 357.186,1351.86 312.519,1319.19 271.5,1281.5C 256.527,1266.19 241.527,1250.86 226.5,1235.5C 213.759,1220.77 201.426,1205.77 189.5,1190.5C 177.719,1175.05 166.719,1159.05 156.5,1142.5C 151.133,1134.14 145.799,1125.81 140.5,1117.5C 135.417,1107.66 130.084,1098 124.5,1088.5C 118.498,1075.83 112.498,1063.16 106.5,1050.5C 102.499,1040.83 98.4987,1031.16 94.5,1021.5C 86.9044,1001.38 79.9044,981.047 73.5,960.5C 69.5855,947.999 66.2522,935.332 63.5,922.5C 61.112,913.225 59.112,903.892 57.5,894.5C 54.9586,882.252 52.9586,869.918 51.5,857.5C 49.5131,845.577 48.1797,833.577 47.5,821.5C 46.644,811.515 45.9773,801.515 45.5,791.5C 44.3038,768.8 44.3038,746.133 45.5,723.5C 45.8333,716.167 46.1667,708.833 46.5,701.5C 49.0732,678.587 52.0732,655.587 55.5,632.5C 59.8332,611.536 64.4998,590.536 69.5,569.5C 77.008,544.644 85.3413,519.977 94.5,495.5C 109.418,459.331 126.751,424.331 146.5,390.5C 159.321,369.54 173.154,349.206 188,329.5C 188.667,328.833 188.667,328.167 188,327.5C 146.965,368.701 105.799,409.701 64.5,450.5C 135.782,292.713 247.449,172.213 399.5,89C 416.278,80.2768 433.278,72.1102 450.5,64.5C 409.368,106.132 368.035,147.632 326.5,189C 346.869,174.963 367.536,161.13 388.5,147.5C 422.273,127.78 457.273,110.447 493.5,95.5C 517.977,86.3413 542.644,78.008 567.5,70.5C 589.791,64.8365 612.124,59.8365 634.5,55.5C 655.077,52.1818 675.744,49.5151 696.5,47.5C 705.52,47.0099 714.52,46.3432 723.5,45.5 Z"/></g>
<g><path style="opacity:0.992" fill="#f8f9fa" d="M 484.5,50.5 C 452.5,82.8333 420.5,115.167 388.5,147.5C 367.536,161.13 346.869,174.963 326.5,189C 368.035,147.632 409.368,106.132 450.5,64.5C 461.601,59.2834 472.934,54.6168 484.5,50.5 Z"/></g>
<g><path style="opacity:0.99" fill="#c8cdd5" d="M 1054.5,59.5 C 1064.59,63.0482 1074.26,67.3815 1083.5,72.5C 1071.83,83.5 1060.5,94.8333 1049.5,106.5C 1039.71,102.774 1030.05,98.7735 1020.5,94.5C 1031.83,82.8333 1043.17,71.1667 1054.5,59.5 Z"/></g>
<g><path style="opacity:0.99" fill="#c4c9d2" d="M 1083.5,72.5 C 1096.31,78.0711 1108.64,84.4044 1120.5,91.5C 1110.2,102.298 1099.7,112.965 1089,123.5C 1088.54,124.094 1088.37,124.761 1088.5,125.5C 1075.37,119.351 1062.37,113.017 1049.5,106.5C 1060.5,94.8333 1071.83,83.5 1083.5,72.5 Z"/></g>
<g><path style="opacity:0.99" fill="#c0c5cf" d="M 1120.5,91.5 C 1130.62,96.0598 1140.29,101.393 1149.5,107.5C 1139.2,118.298 1128.7,128.965 1118,139.5C 1117.54,140.094 1117.37,140.761 1117.5,141.5C 1107.61,136.39 1097.94,131.057 1088.5,125.5C 1088.37,124.761 1088.54,124.094 1089,123.5C 1099.7,112.965 1110.2,102.298 1120.5,91.5 Z"/></g>
<g><path style="opacity:0.989" fill="#bdc3cd" d="M 1149.5,107.5 C 1158.04,112.598 1166.37,117.931 1174.5,123.5C 1163.17,134.167 1152.17,145.167 1141.5,156.5C 1133.5,151.5 1125.5,146.5 1117.5,141.5C 1117.37,140.761 1117.54,140.094 1118,139.5C 1128.7,128.965 1139.2,118.298 1149.5,107.5 Z"/></g>
<g><path style="opacity:0.989" fill="#b8bec9" d="M 1174.5,123.5 C 1191.24,133.863 1207.24,145.196 1222.5,157.5C 1211.11,167.886 1200.45,178.886 1190.5,190.5C 1174.72,178.387 1158.38,167.054 1141.5,156.5C 1152.17,145.167 1163.17,134.167 1174.5,123.5 Z"/></g>
<g><path style="opacity:0.988" fill="#b2b8c4" d="M 1222.5,157.5 C 1237.78,169.111 1252.44,181.444 1266.5,194.5C 1255.5,204.833 1244.83,215.5 1234.5,226.5C 1220.12,214.122 1205.46,202.122 1190.5,190.5C 1200.45,178.886 1211.11,167.886 1222.5,157.5 Z"/></g>
<g><path style="opacity:0.988" fill="#aeb4c1" d="M 1266.5,194.5 C 1283.26,208.713 1298.92,224.047 1313.5,240.5C 1303.17,251.5 1292.5,262.167 1281.5,272.5C 1266.47,256.469 1250.8,241.136 1234.5,226.5C 1244.83,215.5 1255.5,204.833 1266.5,194.5 Z"/></g>
<g><path style="opacity:0.988" fill="#b2b8c3" d="M 1313.5,240.5 C 1351.93,281.035 1385.26,325.368 1413.5,373.5C 1402.17,384.5 1390.83,395.5 1379.5,406.5C 1351.86,358.186 1319.19,313.519 1281.5,272.5C 1292.5,262.167 1303.17,251.5 1313.5,240.5 Z"/></g>
<g><path style="opacity:0.992" fill="#f8f9fa" d="M 146.5,390.5 C 146.565,390.062 146.399,389.728 146,389.5C 114.299,421.368 82.4654,453.035 50.5,484.5C 54.2066,472.699 58.8733,461.366 64.5,450.5C 105.799,409.701 146.965,368.701 188,327.5C 188.667,328.167 188.667,328.833 188,329.5C 173.154,349.206 159.321,369.54 146.5,390.5 Z"/></g>
<g><path style="opacity:0.989" fill="#b6bbc4" d="M 1413.5,373.5 C 1419.09,383.006 1424.42,392.673 1429.5,402.5C 1418.17,413.5 1406.83,424.5 1395.5,435.5C 1390.44,425.708 1385.1,416.041 1379.5,406.5C 1390.83,395.5 1402.17,384.5 1413.5,373.5 Z"/></g>
<g><path style="opacity:0.991" fill="#f5f6f7" d="M 146.5,390.5 C 126.751,424.331 109.418,459.331 94.5,495.5C 94.5654,495.062 94.3988,494.728 94,494.5C 70.9653,517.702 47.7986,540.702 24.5,563.5C 31.1957,536.414 39.8624,510.081 50.5,484.5C 82.4654,453.035 114.299,421.368 146,389.5C 146.399,389.728 146.565,390.062 146.5,390.5 Z"/></g>
<g><path style="opacity:0.989" fill="#b9bdc5" d="M 1429.5,402.5 C 1450.34,440.846 1467.34,480.846 1480.5,522.5C 1468.7,533.798 1457.03,545.298 1445.5,557C 1444.91,557.464 1444.24,557.631 1443.5,557.5C 1431.23,515.353 1415.23,474.686 1395.5,435.5C 1406.83,424.5 1418.17,413.5 1429.5,402.5 Z"/></g>
<g><path style="opacity:0.991" fill="#f1f2f4" d="M 94.5,495.5 C 85.3413,519.977 77.008,544.644 69.5,569.5C 69.5654,569.062 69.3988,568.728 69,568.5C 49.6319,588.035 30.1319,607.368 10.5,626.5C 14.068,605.231 18.7347,584.231 24.5,563.5C 47.7986,540.702 70.9653,517.702 94,494.5C 94.3988,494.728 94.5654,495.062 94.5,495.5 Z"/></g>
<g><path style="opacity:0.989" fill="#bdc0c6" d="M 1480.5,522.5 C 1490.02,549.906 1497.35,577.906 1502.5,606.5C 1489.5,619.167 1476.5,631.833 1463.5,644.5C 1458.86,614.99 1452.2,585.99 1443.5,557.5C 1444.24,557.631 1444.91,557.464 1445.5,557C 1457.03,545.298 1468.7,533.798 1480.5,522.5 Z"/></g>
<g><path style="opacity:0.991" fill="#edeff1" d="M 69.5,569.5 C 64.4998,590.536 59.8332,611.536 55.5,632.5C 55.5654,632.062 55.3988,631.728 55,631.5C 37.6319,649.035 20.1319,666.368 2.5,683.5C 4.43089,664.385 7.09756,645.385 10.5,626.5C 30.1319,607.368 49.6319,588.035 69,568.5C 69.3988,568.728 69.5654,569.062 69.5,569.5 Z"/></g>
<g><path style="opacity:0.991" fill="#c0c2c7" d="M 1502.5,606.5 C 1509.34,637.018 1513.67,668.018 1515.5,699.5C 1501.17,713.5 1486.83,727.5 1472.5,741.5C 1471.24,708.997 1468.24,676.664 1463.5,644.5C 1476.5,631.833 1489.5,619.167 1502.5,606.5 Z"/></g>
<g><path style="opacity:0.991" fill="#e9ebee" d="M 55.5,632.5 C 52.0732,655.587 49.0732,678.587 46.5,701.5C 46.6567,700.127 46.49,698.793 46,697.5C 30.6319,713.035 15.1319,728.368 -0.5,743.5C -0.5,735.167 -0.5,726.833 -0.5,718.5C 0.653572,706.995 1.65357,695.328 2.5,683.5C 20.1319,666.368 37.6319,649.035 55,631.5C 55.3988,631.728 55.5654,632.062 55.5,632.5 Z"/></g>
<g><path style="opacity:1" fill="#e6e8ec" d="M 46.5,701.5 C 46.1667,708.833 45.8333,716.167 45.5,723.5C 30.1667,738.5 14.8333,753.5 -0.5,768.5C -0.5,760.167 -0.5,751.833 -0.5,743.5C 15.1319,728.368 30.6319,713.035 46,697.5C 46.49,698.793 46.6567,700.127 46.5,701.5 Z"/></g>
<g><path style="opacity:0.991" fill="#c4c5c9" d="M 1515.5,699.5 C 1516.76,714.611 1517.76,729.611 1518.5,744.5C 1518.5,754.167 1518.5,763.833 1518.5,773.5C 1517.67,792.028 1516.5,810.695 1515,829.5C 1513.64,845.753 1511.47,861.753 1508.5,877.5C 1489.53,895.965 1470.7,914.632 1452,933.5C 1451.6,933.272 1451.43,932.938 1451.5,932.5C 1466.91,869.811 1473.91,806.145 1472.5,741.5C 1486.83,727.5 1501.17,713.5 1515.5,699.5 Z"/></g>
<g><path style="opacity:0.993" fill="#e3e5e9" d="M 45.5,723.5 C 44.3038,746.133 44.3038,768.8 45.5,791.5C 44.6909,789.708 44.1909,787.708 44,785.5C 29.9648,799.368 16.1314,813.368 2.5,827.5C 1.30506,817.85 0.305061,808.184 -0.5,798.5C -0.5,788.5 -0.5,778.5 -0.5,768.5C 14.8333,753.5 30.1667,738.5 45.5,723.5 Z"/></g>
<g><path style="opacity:0.991" fill="#dfe1e6" d="M 45.5,791.5 C 45.9773,801.515 46.644,811.515 47.5,821.5C 46.7784,821.082 46.2784,820.416 46,819.5C 32.6318,833.035 19.1318,846.369 5.5,859.5C 3.91403,848.892 2.91403,838.226 2.5,827.5C 16.1314,813.368 29.9648,799.368 44,785.5C 44.1909,787.708 44.6909,789.708 45.5,791.5 Z"/></g>
<g><path style="opacity:0.99" fill="#dcdfe4" d="M 47.5,821.5 C 48.1797,833.577 49.5131,845.577 51.5,857.5C 50.8826,857.389 50.3826,857.056 50,856.5C 37.2985,869.369 24.4652,882.035 11.5,894.5C 8.77066,883.086 6.77066,871.42 5.5,859.5C 19.1318,846.369 32.6318,833.035 46,819.5C 46.2784,820.416 46.7784,821.082 47.5,821.5 Z"/></g>
<g><path style="opacity:0.99" fill="#d8dce2" d="M 51.5,857.5 C 52.9586,869.918 54.9586,882.252 57.5,894.5C 44.5,907.167 31.5,919.833 18.5,932.5C 15.6522,919.927 13.3188,907.261 11.5,894.5C 24.4652,882.035 37.2985,869.369 50,856.5C 50.3826,857.056 50.8826,857.389 51.5,857.5 Z"/></g>
<g><path style="opacity:0.991" fill="#c7c8ca" d="M 1508.5,877.5 C 1506.2,896.02 1502.86,914.353 1498.5,932.5C 1476.53,953.965 1454.7,975.632 1433,997.5C 1432.6,997.272 1432.43,996.938 1432.5,996.5C 1439.28,975.16 1445.62,953.827 1451.5,932.5C 1451.43,932.938 1451.6,933.272 1452,933.5C 1470.7,914.632 1489.53,895.965 1508.5,877.5 Z"/></g>
<g><path style="opacity:0.991" fill="#d5d9df" d="M 57.5,894.5 C 59.112,903.892 61.112,913.225 63.5,922.5C 62.7611,922.369 62.0944,922.536 61.5,923C 49.6318,935.035 37.6318,946.869 25.5,958.5C 23.1667,949.833 20.8333,941.167 18.5,932.5C 31.5,919.833 44.5,907.167 57.5,894.5 Z"/></g>
<g><path style="opacity:0.99" fill="#d2d6dd" d="M 63.5,922.5 C 66.2522,935.332 69.5855,947.999 73.5,960.5C 61.7015,971.798 50.0349,983.298 38.5,995C 37.9056,995.464 37.2389,995.631 36.5,995.5C 32.371,983.32 28.7043,970.987 25.5,958.5C 37.6318,946.869 49.6318,935.035 61.5,923C 62.0944,922.536 62.7611,922.369 63.5,922.5 Z"/></g>
<g><path style="opacity:0.987" fill="#cacacb" d="M 1498.5,932.5 C 1448.43,1132.62 1337.43,1288.79 1165.5,1401C 1093.37,1446.44 1015.7,1478.94 932.5,1498.5C 953.965,1476.53 975.632,1454.7 997.5,1433C 997.272,1432.6 996.938,1432.43 996.5,1432.5C 1021.87,1423.16 1046.87,1412.66 1071.5,1401C 1244.49,1313.17 1364.83,1178.34 1432.5,996.5C 1432.43,996.938 1432.6,997.272 1433,997.5C 1454.7,975.632 1476.53,953.965 1498.5,932.5 Z"/></g>
<g><path style="opacity:0.989" fill="#cdd1d9" d="M 73.5,960.5 C 79.9044,981.047 86.9044,1001.38 94.5,1021.5C 82.219,1032.11 70.5523,1043.45 59.5,1055.5C 50.6772,1036.04 43.0105,1016.04 36.5,995.5C 37.2389,995.631 37.9056,995.464 38.5,995C 50.0349,983.298 61.7015,971.798 73.5,960.5 Z"/></g>
<g><path style="opacity:0.989" fill="#c8cdd5" d="M 94.5,1021.5 C 98.4987,1031.16 102.499,1040.83 106.5,1050.5C 105.761,1050.37 105.094,1050.54 104.5,1051C 93.6318,1062.04 82.6318,1072.87 71.5,1083.5C 66.9455,1074.39 62.9455,1065.06 59.5,1055.5C 70.5523,1043.45 82.219,1032.11 94.5,1021.5 Z"/></g>
<g><path style="opacity:0.989" fill="#c4c9d2" d="M 106.5,1050.5 C 112.498,1063.16 118.498,1075.83 124.5,1088.5C 113.167,1099.5 101.833,1110.5 90.5,1121.5C 83.6394,1109.11 77.3061,1096.45 71.5,1083.5C 82.6318,1072.87 93.6318,1062.04 104.5,1051C 105.094,1050.54 105.761,1050.37 106.5,1050.5 Z"/></g>
<g><path style="opacity:0.988" fill="#c0c5cf" d="M 124.5,1088.5 C 130.084,1098 135.417,1107.66 140.5,1117.5C 129.167,1128.17 118.167,1139.17 107.5,1150.5C 101.596,1141.03 95.9294,1131.37 90.5,1121.5C 101.833,1110.5 113.167,1099.5 124.5,1088.5 Z"/></g>
<g><path style="opacity:0.988" fill="#bdc3cd" d="M 140.5,1117.5 C 145.799,1125.81 151.133,1134.14 156.5,1142.5C 155.761,1142.37 155.094,1142.54 154.5,1143C 143.965,1153.7 133.298,1164.2 122.5,1174.5C 117.013,1166.87 112.013,1158.87 107.5,1150.5C 118.167,1139.17 129.167,1128.17 140.5,1117.5 Z"/></g>
<g><path style="opacity:0.988" fill="#b8bec9" d="M 156.5,1142.5 C 166.719,1159.05 177.719,1175.05 189.5,1190.5C 178.5,1201.17 167.5,1211.83 156.5,1222.5C 144.675,1206.85 133.342,1190.85 122.5,1174.5C 133.298,1164.2 143.965,1153.7 154.5,1143C 155.094,1142.54 155.761,1142.37 156.5,1142.5 Z"/></g>
<g><path style="opacity:0.988" fill="#b2b8c4" d="M 189.5,1190.5 C 201.426,1205.77 213.759,1220.77 226.5,1235.5C 225.761,1235.37 225.094,1235.54 224.5,1236C 214.298,1246.37 203.965,1256.54 193.5,1266.5C 180.444,1252.44 168.111,1237.78 156.5,1222.5C 167.5,1211.83 178.5,1201.17 189.5,1190.5 Z"/></g>
<g><path style="opacity:0.991" fill="#aeb4c1" d="M 226.5,1235.5 C 241.527,1250.86 256.527,1266.19 271.5,1281.5C 271.631,1282.24 271.464,1282.91 271,1283.5C 260.631,1293.7 250.465,1304.03 240.5,1314.5C 224.136,1299.14 208.469,1283.14 193.5,1266.5C 203.965,1256.54 214.298,1246.37 224.5,1236C 225.094,1235.54 225.761,1235.37 226.5,1235.5 Z"/></g>
<g><path style="opacity:0.989" fill="#b2b8c3" d="M 271.5,1281.5 C 312.519,1319.19 357.186,1351.86 405.5,1379.5C 405.631,1380.24 405.464,1380.91 405,1381.5C 394.298,1392.03 383.798,1402.7 373.5,1413.5C 325.41,1385.61 281.077,1352.61 240.5,1314.5C 250.465,1304.03 260.631,1293.7 271,1283.5C 271.464,1282.91 271.631,1282.24 271.5,1281.5 Z"/></g>
<g><path style="opacity:0.989" fill="#b6bbc4" d="M 405.5,1379.5 C 415.006,1385.09 424.673,1390.42 434.5,1395.5C 424.22,1407.45 413.22,1418.78 401.5,1429.5C 391.806,1424.66 382.472,1419.32 373.5,1413.5C 383.798,1402.7 394.298,1392.03 405,1381.5C 405.464,1380.91 405.631,1380.24 405.5,1379.5 Z"/></g>
<g><path style="opacity:0.989" fill="#b9bdc5" d="M 434.5,1395.5 C 474.027,1415.43 515.027,1431.76 557.5,1444.5C 545.833,1456.83 533.833,1468.83 521.5,1480.5C 479.824,1467.33 439.824,1450.33 401.5,1429.5C 413.22,1418.78 424.22,1407.45 434.5,1395.5 Z"/></g>
<g><path style="opacity:0.991" fill="#c7c8ca" d="M 996.5,1432.5 C 996.938,1432.43 997.272,1432.6 997.5,1433C 975.632,1454.7 953.965,1476.53 932.5,1498.5C 914.014,1502.93 895.347,1506.6 876.5,1509.5C 894.965,1490.53 913.632,1471.7 932.5,1453C 932.272,1452.6 931.938,1452.43 931.5,1452.5C 953.188,1446.27 974.855,1439.61 996.5,1432.5 Z"/></g>
<g><path style="opacity:0.99" fill="#bdc0c6" d="M 557.5,1444.5 C 585.488,1452.27 613.821,1458.6 642.5,1463.5C 642.611,1464.12 642.944,1464.62 643.5,1465C 630.631,1477.7 617.965,1490.53 605.5,1503.5C 576.904,1497.69 548.904,1490.02 521.5,1480.5C 533.833,1468.83 545.833,1456.83 557.5,1444.5 Z"/></g>
<g><path style="opacity:0.991" fill="#c4c5c9" d="M 931.5,1452.5 C 931.938,1452.43 932.272,1452.6 932.5,1453C 913.632,1471.7 894.965,1490.53 876.5,1509.5C 847.173,1513.95 817.84,1516.95 788.5,1518.5C 768.5,1518.5 748.5,1518.5 728.5,1518.5C 718.674,1517.51 708.674,1516.84 698.5,1516.5C 712.298,1502.2 726.298,1488.03 740.5,1474C 739.263,1473.77 738.263,1473.27 737.5,1472.5C 755.836,1472.67 774.17,1472.5 792.5,1472C 839.416,1469.56 885.749,1463.06 931.5,1452.5 Z"/></g>
<g><path style="opacity:0.991" fill="#c0c2c7" d="M 642.5,1463.5 C 673.939,1468.65 705.606,1471.65 737.5,1472.5C 738.263,1473.27 739.263,1473.77 740.5,1474C 726.298,1488.03 712.298,1502.2 698.5,1516.5C 667.28,1513.75 636.28,1509.42 605.5,1503.5C 617.965,1490.53 630.631,1477.7 643.5,1465C 642.944,1464.62 642.611,1464.12 642.5,1463.5 Z"/></g>
</svg>
