<?xml version="1.0" encoding="UTF-8"?>
<!DOCTYPE svg PUBLIC "-//W3C//DTD SVG 1.1//EN" "http://www.w3.org/Graphics/SVG/1.1/DTD/svg11.dtd">
<svg xmlns="http://www.w3.org/2000/svg" version="1.1" width="516px" height="1051px" style="shape-rendering:geometricPrecision; text-rendering:geometricPrecision; image-rendering:optimizeQuality; fill-rule:evenodd; clip-rule:evenodd" xmlns:xlink="http://www.w3.org/1999/xlink">
<g><path style="opacity:0.954" fill="#3b2fd1" d="M 251.5,-0.5 C 256.833,-0.5 262.167,-0.5 267.5,-0.5C 363.938,6.61806 433.771,53.2847 477,139.5C 494.744,179.374 501.411,221.041 497,264.5C 496.682,266.061 495.849,267.228 494.5,268C 488.552,269.255 482.552,270.088 476.5,270.5C 485.087,186.709 456.753,118.542 391.5,66C 325.998,19.6446 255.331,9.97796 179.5,37C 106.218,68.6204 61.0513,123.454 44,201.5C 39.9648,225.759 39.4648,250.092 42.5,274.5C 35.5644,273.946 28.7311,272.946 22,271.5C 12.8892,184.797 40.7226,112.631 105.5,55C 148.043,20.5682 196.71,2.06823 251.5,-0.5 Z"/></g>
<g><path style="opacity:0.939" fill="#3b2fd1" d="M 258.5,29.5 C 265.744,29.8616 272.91,30.5283 280,31.5C 283.96,39.2923 283.126,46.459 277.5,53C 269.418,57.1773 262.251,56.0107 256,49.5C 252.209,42.2077 253.042,35.5411 258.5,29.5 Z"/></g>
<g><path style="opacity:0.775" fill="#3b2fd1" d="M 237.5,30.5 C 254.319,29.1456 254.819,31.1456 239,36.5C 235.46,35.9935 232.293,34.6602 229.5,32.5C 232.306,31.8324 234.972,31.1657 237.5,30.5 Z"/></g>
<g><path style="opacity:0.63" fill="#3b2fd1" d="M 288.5,31.5 C 293.315,32.1618 297.981,33.3285 302.5,35C 298.857,36.8447 295.191,36.8447 291.5,35C 289.574,34.5776 288.574,33.4109 288.5,31.5 Z"/></g>
<g><path style="opacity:0.92" fill="#3b2fd1" d="M 217.5,33.5 C 220.547,32.8554 222.713,33.8554 224,36.5C 224.976,50.5241 218.476,56.6908 204.5,55C 197.435,52.0356 194.768,46.869 196.5,39.5C 203.572,37.3194 210.572,35.3194 217.5,33.5 Z"/></g>
<g><path style="opacity:0.907" fill="#3b2fd1" d="M 312.5,36.5 C 322.212,38.8478 331.545,42.1812 340.5,46.5C 334.988,55.8011 327.322,57.9677 317.5,53C 313.014,48.4323 311.347,42.9323 312.5,36.5 Z"/></g>
<g><path style="opacity:0.935" fill="#3b2fd1" d="M 175.5,46.5 C 190.75,45.5803 196.917,52.5803 194,67.5C 187.649,76.1945 179.816,77.6945 170.5,72C 166.07,66.7841 164.903,60.9507 167,54.5C 169.074,50.9231 171.907,48.2565 175.5,46.5 Z"/></g>
<g><path style="opacity:0.939" fill="#3b2fd1" d="M 233.5,46.5 C 250.955,45.4465 256.789,53.1132 251,69.5C 243,77.5 235,77.5 227,69.5C 222.215,59.7026 224.382,52.0359 233.5,46.5 Z"/></g>
<g><path style="opacity:0.933" fill="#3b2fd1" d="M 291.5,46.5 C 304.94,44.4519 311.773,50.1185 312,63.5C 308.484,74.2372 301.318,77.7372 290.5,74C 279.769,64.4691 280.103,55.3024 291.5,46.5 Z"/></g>
<g><path style="opacity:0.921" fill="#3b2fd1" d="M 346.5,48.5 C 354.585,51.7093 362.252,55.7093 369.5,60.5C 370.46,68.0743 367.127,72.9076 359.5,75C 345.999,75.4954 340.166,68.9954 342,55.5C 343.012,52.7982 344.512,50.4649 346.5,48.5 Z"/></g>
<g><path style="opacity:0.937" fill="#3b2fd1" d="M 148.5,65.5 C 163.496,66.6491 168.662,74.3158 164,88.5C 156.707,96.4651 148.874,97.1318 140.5,90.5C 133.786,78.996 136.452,70.6627 148.5,65.5 Z"/></g>
<g><path style="opacity:0.935" fill="#3b2fd1" d="M 206.5,65.5 C 217.387,64.7253 223.387,69.7253 224.5,80.5C 223.949,89.5521 219.116,94.5521 210,95.5C 197.124,92.7547 192.791,85.088 197,72.5C 199.529,69.1151 202.696,66.7818 206.5,65.5 Z"/></g>
<g><path style="opacity:0.937" fill="#3b2fd1" d="M 265.5,65.5 C 280.377,66.5523 285.544,74.219 281,88.5C 273.578,96.5358 265.578,97.2025 257,90.5C 250.63,78.772 253.463,70.4387 265.5,65.5 Z"/></g>
<g><path style="opacity:0.936" fill="#3b2fd1" d="M 323.5,65.5 C 334.272,64.8746 340.272,69.8746 341.5,80.5C 340.944,89.5457 336.11,94.5457 327,95.5C 314.139,92.7866 309.806,85.1199 314,72.5C 316.529,69.1151 319.696,66.7818 323.5,65.5 Z"/></g>
<g><path style="opacity:0.922" fill="#3b2fd1" d="M 377.5,67.5 C 378.873,67.3433 380.207,67.51 381.5,68C 387.311,72.3097 392.977,76.8097 398.5,81.5C 399.247,86.1915 397.581,90.0248 393.5,93C 384.848,96.8788 377.681,95.0454 372,87.5C 368.897,79.3267 370.73,72.66 377.5,67.5 Z"/></g>
<g><path style="opacity:0.938" fill="#3b2fd1" d="M 117.5,85.5 C 132.107,84.3875 138.274,91.0541 136,105.5C 131.241,114.419 124.074,116.919 114.5,113C 107.136,107.054 105.636,99.8878 110,91.5C 112.114,88.8792 114.614,86.8792 117.5,85.5 Z"/></g>
<g><path style="opacity:0.933" fill="#3b2fd1" d="M 175.5,85.5 C 190.815,84.6403 196.981,91.6403 194,106.5C 188.199,114.873 180.699,116.707 171.5,112C 165.064,105.441 164.231,98.2744 169,90.5C 170.965,88.4497 173.132,86.783 175.5,85.5 Z"/></g>
<g><path style="opacity:0.941" fill="#3b2fd1" d="M 234.5,85.5 C 248.653,84.1523 254.82,90.4856 253,104.5C 248.691,113.946 241.524,116.78 231.5,113C 224.138,107.095 222.638,99.9279 227,91.5C 229.134,88.8474 231.634,86.8474 234.5,85.5 Z"/></g>
<g><path style="opacity:0.93" fill="#3b2fd1" d="M 292.5,85.5 C 307.799,84.6254 313.965,91.6254 311,106.5C 305.199,114.873 297.699,116.707 288.5,112C 282.999,106.831 281.499,100.664 284,93.5C 286.074,89.9231 288.907,87.2565 292.5,85.5 Z"/></g>
<g><path style="opacity:0.942" fill="#3b2fd1" d="M 351.5,85.5 C 366.826,85.3234 372.66,92.6567 369,107.5C 362.206,115.367 354.372,116.534 345.5,111C 338.663,100.247 340.663,91.7467 351.5,85.5 Z"/></g>
<g><path style="opacity:0.905" fill="#3b2fd1" d="M 404.5,88.5 C 412.106,94.2718 418.94,100.939 425,108.5C 424.642,111.494 422.808,113.327 419.5,114C 404.178,115.347 398.011,108.514 401,93.5C 401.997,91.6769 403.164,90.0103 404.5,88.5 Z"/></g>
<g><path style="opacity:0.913" fill="#3b2fd1" d="M 96.5,105.5 C 105.653,108.53 109.153,114.863 107,124.5C 101.952,134.183 94.4515,136.683 84.5,132C 83.1667,130.667 81.8333,129.333 80.5,128C 85.7201,120.383 91.0534,112.883 96.5,105.5 Z"/></g>
<g><path style="opacity:0.937" fill="#3b2fd1" d="M 145.5,105.5 C 157.599,103.114 164.599,107.948 166.5,120C 164.703,130.738 158.37,135.405 147.5,134C 137.847,130.271 134.681,123.437 138,113.5C 140.028,110.308 142.528,107.641 145.5,105.5 Z"/></g>
<g><path style="opacity:0.94" fill="#3b2fd1" d="M 204.5,105.5 C 221.451,104.741 227.284,112.407 222,128.5C 213.37,136.699 205.037,136.366 197,127.5C 193.106,117.785 195.606,110.451 204.5,105.5 Z"/></g>
<g><path style="opacity:0.942" fill="#3b2fd1" d="M 262.5,105.5 C 277.653,103.819 284.153,110.486 282,125.5C 276.452,134.349 268.952,136.515 259.5,132C 250.771,121.999 251.771,113.165 262.5,105.5 Z"/></g>
<g><path style="opacity:0.941" fill="#3b2fd1" d="M 321.5,105.5 C 337.407,103.999 343.574,110.999 340,126.5C 335.283,133.85 328.783,136.017 320.5,133C 312.024,127.284 310.191,119.784 315,110.5C 316.965,108.45 319.132,106.783 321.5,105.5 Z"/></g>
<g><path style="opacity:0.939" fill="#3b2fd1" d="M 379.5,105.5 C 394.653,103.819 401.153,110.486 399,125.5C 393.452,134.349 385.952,136.515 376.5,132C 370.587,126.557 369.087,120.057 372,112.5C 374.015,109.588 376.515,107.255 379.5,105.5 Z"/></g>
<g><path style="opacity:0.8" fill="#3b2fd1" d="M 429.5,115.5 C 434.904,120.991 438.737,127.324 441,134.5C 431.625,131.607 427.791,125.274 429.5,115.5 Z"/></g>
<g><path style="opacity:0.94" fill="#3b2fd1" d="M 118.5,124.5 C 134.808,125.307 139.974,133.307 134,148.5C 129.078,153.202 123.245,154.702 116.5,153C 107.299,147.694 105.132,140.194 110,130.5C 112.322,127.605 115.155,125.605 118.5,124.5 Z"/></g>
<g><path style="opacity:0.938" fill="#3b2fd1" d="M 177.5,124.5 C 189.933,124.1 195.767,130.1 195,142.5C 191.598,152.452 184.765,155.952 174.5,153C 164.589,146.199 163.256,138.032 170.5,128.5C 172.765,126.873 175.099,125.539 177.5,124.5 Z"/></g>
<g><path style="opacity:0.938" fill="#3b2fd1" d="M 235.5,124.5 C 251.489,125.474 256.656,133.474 251,148.5C 246.078,153.202 240.245,154.702 233.5,153C 225.878,149.167 223.045,143.001 225,134.5C 227.106,129.557 230.606,126.224 235.5,124.5 Z"/></g>
<g><path style="opacity:0.937" fill="#3b2fd1" d="M 294.5,124.5 C 309.649,125.468 314.816,133.135 310,147.5C 305.116,153.22 298.95,155.053 291.5,153C 281.516,146.061 280.183,137.728 287.5,128C 289.925,126.787 292.259,125.621 294.5,124.5 Z"/></g>
<g><path style="opacity:0.937" fill="#3b2fd1" d="M 352.5,124.5 C 368.489,125.474 373.656,133.474 368,148.5C 361.459,154.126 354.292,154.96 346.5,151C 340.896,144.803 340.063,137.969 344,130.5C 346.322,127.605 349.155,125.605 352.5,124.5 Z"/></g>
<g><path style="opacity:0.937" fill="#3b2fd1" d="M 410.5,124.5 C 424.831,124.516 430.664,131.516 428,145.5C 423.605,153.103 417.105,155.603 408.5,153C 398.296,146.109 396.963,137.776 404.5,128C 406.432,126.541 408.432,125.375 410.5,124.5 Z"/></g>
<g><path style="opacity:0.751" fill="#3b2fd1" d="M 76.5,134.5 C 79.7653,142.989 77.0986,149.322 68.5,153.5C 67.4173,152.635 67.2506,151.635 68,150.5C 70.5913,144.981 73.4247,139.648 76.5,134.5 Z"/></g>
<g><path style="opacity:0.94" fill="#3b2fd1" d="M 88.5,144.5 C 101.951,143.784 108.118,150.117 107,163.5C 102.565,172.982 95.3979,175.816 85.5,172C 78.9151,167.532 76.7485,161.365 79,153.5C 80.8714,149.006 84.0381,146.006 88.5,144.5 Z"/></g>
<g><path style="opacity:0.933" fill="#3b2fd1" d="M 146.5,144.5 C 161.262,143.424 167.429,150.09 165,164.5C 159.718,173.83 152.218,175.996 142.5,171C 136.688,165.896 135.188,159.729 138,152.5C 140.074,148.923 142.907,146.256 146.5,144.5 Z"/></g>
<g><path style="opacity:0.942" fill="#3b2fd1" d="M 205.5,144.5 C 221.757,144.578 227.257,152.245 222,167.5C 214.916,174.694 207.249,175.361 199,169.5C 192.607,158.673 194.774,150.339 205.5,144.5 Z"/></g>
<g><path style="opacity:0.937" fill="#3b2fd1" d="M 263.5,144.5 C 280.614,144.378 286.114,152.378 280,168.5C 273.803,174.104 266.969,174.937 259.5,171C 253.688,165.896 252.188,159.729 255,152.5C 257.074,148.923 259.907,146.256 263.5,144.5 Z"/></g>
<g><path style="opacity:0.937" fill="#3b2fd1" d="M 321.5,144.5 C 336.815,143.64 342.981,150.64 340,165.5C 334.199,173.873 326.699,175.707 317.5,171C 311.874,164.459 311.04,157.292 315,149.5C 316.965,147.45 319.132,145.783 321.5,144.5 Z"/></g>
<g><path style="opacity:0.94" fill="#3b2fd1" d="M 380.5,144.5 C 397.627,144.408 403.127,152.408 397,168.5C 390.766,174.008 383.933,174.841 376.5,171C 370.028,165.096 368.861,158.262 373,150.5C 375.114,147.879 377.614,145.879 380.5,144.5 Z"/></g>
<g><path style="opacity:0.933" fill="#3b2fd1" d="M 438.5,144.5 C 441.898,144.18 445.232,144.513 448.5,145.5C 451.773,151.712 454.773,158.046 457.5,164.5C 451.946,173.8 444.279,175.967 434.5,171C 428.874,164.459 428.04,157.292 432,149.5C 433.965,147.45 436.132,145.783 438.5,144.5 Z"/></g>
<g><path style="opacity:0.927" fill="#3b2fd1" d="M 61.5,164.5 C 75.1884,165.038 80.3551,172.038 77,185.5C 72.2827,192.85 65.7827,195.017 57.5,192C 55.5904,191.592 54.5904,190.425 54.5,188.5C 56.529,180.379 58.8624,172.379 61.5,164.5 Z"/></g>
<g><path style="opacity:0.939" fill="#3b2fd1" d="M 116.5,164.5 C 133.019,163.183 139.185,170.516 135,186.5C 129.033,193.733 121.867,195.233 113.5,191C 107.587,185.557 106.087,179.057 109,171.5C 110.742,168.254 113.242,165.921 116.5,164.5 Z"/></g>
<g><path style="opacity:0.938" fill="#3b2fd1" d="M 174.5,164.5 C 187.946,162.459 194.779,168.126 195,181.5C 190.102,193.855 181.935,196.521 170.5,189.5C 163.335,179.823 164.668,171.49 174.5,164.5 Z"/></g>
<g><path style="opacity:0.938" fill="#3b2fd1" d="M 233.5,164.5 C 250.955,163.447 256.789,171.113 251,187.5C 243,195.5 235,195.5 227,187.5C 222.215,177.703 224.382,170.036 233.5,164.5 Z"/></g>
<g><path style="opacity:0.937" fill="#3b2fd1" d="M 291.5,164.5 C 303.368,162.053 310.368,166.72 312.5,178.5C 310.387,190.558 303.387,195.058 291.5,192C 282.9,186.863 280.734,179.696 285,170.5C 287.063,168.266 289.229,166.266 291.5,164.5 Z"/></g>
<g><path style="opacity:0.938" fill="#3b2fd1" d="M 350.5,164.5 C 367.932,163.426 373.765,171.092 368,187.5C 360,195.5 352,195.5 344,187.5C 339.031,177.638 341.198,169.971 350.5,164.5 Z"/></g>
<g><path style="opacity:0.936" fill="#3b2fd1" d="M 408.5,164.5 C 420.363,162.047 427.363,166.714 429.5,178.5C 427.09,190.876 419.757,195.376 407.5,192C 396.62,182.44 396.953,173.273 408.5,164.5 Z"/></g>
<g><path style="opacity:0.722" fill="#3b2fd1" d="M 459.5,172.5 C 461.942,177.892 463.942,183.559 465.5,189.5C 465.167,189.833 464.833,190.167 464.5,190.5C 461.716,188.886 459.882,186.552 459,183.5C 458.245,179.745 458.411,176.078 459.5,172.5 Z"/></g>
<g><path style="opacity:0.939" fill="#3b2fd1" d="M 89.5,183.5 C 104.338,183.837 109.838,191.17 106,205.5C 101.532,212.085 95.365,214.252 87.5,212C 78.1704,206.718 76.0038,199.218 81,189.5C 83.3218,186.605 86.1552,184.605 89.5,183.5 Z"/></g>
<g><path style="opacity:0.937" fill="#3b2fd1" d="M 147.5,183.5 C 161.833,183.523 167.666,190.523 165,204.5C 160.605,212.103 154.105,214.603 145.5,212C 135.286,205.053 133.953,196.72 141.5,187C 143.432,185.541 145.432,184.375 147.5,183.5 Z"/></g>
<g><path style="opacity:0.94" fill="#3b2fd1" d="M 206.5,183.5 C 221.316,183.818 226.816,191.151 223,205.5C 216.874,213.01 209.374,214.51 200.5,210C 195.309,204.31 194.142,197.81 197,190.5C 199.529,187.115 202.696,184.782 206.5,183.5 Z"/></g>
<g><path style="opacity:0.942" fill="#3b2fd1" d="M 264.5,183.5 C 280.832,184.327 285.999,192.327 280,207.5C 275.078,212.202 269.245,213.702 262.5,212C 253.297,206.606 251.13,199.106 256,189.5C 258.322,186.605 261.155,184.605 264.5,183.5 Z"/></g>
<g><path style="opacity:0.941" fill="#3b2fd1" d="M 323.5,183.5 C 336.471,183.303 342.304,189.636 341,202.5C 335.894,212.844 328.061,215.344 317.5,210C 312.339,204.28 311.172,197.78 314,190.5C 316.529,187.115 319.696,184.782 323.5,183.5 Z"/></g>
<g><path style="opacity:0.94" fill="#3b2fd1" d="M 381.5,183.5 C 397.832,184.327 402.999,192.327 397,207.5C 389.599,213.748 381.932,214.082 374,208.5C 367.762,197.39 370.262,189.057 381.5,183.5 Z"/></g>
<g><path style="opacity:0.942" fill="#3b2fd1" d="M 440.5,183.5 C 454.635,183.784 460.135,190.784 457,204.5C 451.803,212.575 444.637,214.742 435.5,211C 429.78,206.116 427.947,199.95 430,192.5C 432.463,188.198 435.963,185.198 440.5,183.5 Z"/></g>
<g><path style="opacity:0.938" fill="#3b2fd1" d="M 58.5,203.5 C 73.8146,202.64 79.9812,209.64 77,224.5C 72.0703,232.393 65.2369,234.56 56.5,231C 49.9151,226.532 47.7485,220.365 50,212.5C 51.6878,208.315 54.5212,205.315 58.5,203.5 Z"/></g>
<g><path style="opacity:0.941" fill="#3b2fd1" d="M 117.5,203.5 C 132.107,202.387 138.274,209.054 136,223.5C 130.667,232.701 123.167,234.867 113.5,230C 107.028,224.096 105.861,217.262 110,209.5C 112.134,206.847 114.634,204.847 117.5,203.5 Z"/></g>
<g><path style="opacity:0.933" fill="#3b2fd1" d="M 175.5,203.5 C 190.815,202.64 196.981,209.64 194,224.5C 188.199,232.873 180.699,234.707 171.5,230C 165.064,223.441 164.231,216.274 169,208.5C 170.965,206.45 173.132,204.783 175.5,203.5 Z"/></g>
<g><path style="opacity:0.941" fill="#3b2fd1" d="M 234.5,203.5 C 248.653,202.152 254.82,208.486 253,222.5C 248.691,231.946 241.524,234.78 231.5,231C 224.56,225.564 222.726,218.731 226,210.5C 228.464,207.519 231.297,205.186 234.5,203.5 Z"/></g>
<g><path style="opacity:0.93" fill="#3b2fd1" d="M 292.5,203.5 C 307.799,202.625 313.965,209.625 311,224.5C 305.199,232.873 297.699,234.707 288.5,230C 282.999,224.831 281.499,218.664 284,211.5C 286.074,207.923 288.907,205.256 292.5,203.5 Z"/></g>
<g><path style="opacity:0.942" fill="#3b2fd1" d="M 351.5,203.5 C 366.826,203.323 372.66,210.657 369,225.5C 360.333,234.833 351.667,234.833 343,225.5C 339.314,215.358 342.148,208.025 351.5,203.5 Z"/></g>
<g><path style="opacity:0.931" fill="#3b2fd1" d="M 409.5,203.5 C 424.262,202.424 430.429,209.09 428,223.5C 422.718,232.83 415.218,234.996 405.5,230C 399.688,224.896 398.188,218.729 401,211.5C 403.074,207.923 405.907,205.256 409.5,203.5 Z"/></g>
<g><path style="opacity:0.883" fill="#3b2fd1" d="M 465.5,204.5 C 466.5,204.5 467.5,204.5 468.5,204.5C 470.027,213.768 471.027,223.102 471.5,232.5C 460.724,230.185 456.557,223.519 459,212.5C 460.479,209.172 462.645,206.506 465.5,204.5 Z"/></g>
<g><path style="opacity:0.934" fill="#3b2fd1" d="M 91.5,222.5 C 106.123,224.742 110.623,232.742 105,246.5C 97,254.5 89,254.5 81,246.5C 75.5588,234.394 79.0588,226.394 91.5,222.5 Z"/></g>
<g><path style="opacity:0.934" fill="#3b2fd1" d="M 149.5,222.5 C 162.611,223.764 167.778,230.764 165,243.5C 158.978,252.95 151.144,254.783 141.5,249C 135.381,242.115 135.048,234.949 140.5,227.5C 143.154,225.011 146.154,223.344 149.5,222.5 Z"/></g>
<g><path style="opacity:0.936" fill="#3b2fd1" d="M 208.5,222.5 C 222.964,224.813 227.464,232.813 222,246.5C 213.37,254.699 205.037,254.366 197,245.5C 192.93,233.639 196.763,225.972 208.5,222.5 Z"/></g>
<g><path style="opacity:0.936" fill="#3b2fd1" d="M 266.5,222.5 C 280.868,224.05 285.701,231.717 281,245.5C 273.578,253.896 265.578,254.563 257,247.5C 250.713,235.426 253.879,227.093 266.5,222.5 Z"/></g>
<g><path style="opacity:0.935" fill="#3b2fd1" d="M 325.5,222.5 C 339.964,224.813 344.464,232.813 339,246.5C 330.37,254.699 322.037,254.366 314,245.5C 309.945,233.608 313.778,225.941 325.5,222.5 Z"/></g>
<g><path style="opacity:0.933" fill="#3b2fd1" d="M 383.5,222.5 C 397.402,224.285 402.235,231.951 398,245.5C 389.963,254.366 381.63,254.699 373,246.5C 367.738,234.41 371.238,226.41 383.5,222.5 Z"/></g>
<g><path style="opacity:0.938" fill="#3b2fd1" d="M 442.5,222.5 C 455.543,224.382 460.376,231.715 457,244.5C 448.79,254.64 440.124,254.973 431,245.5C 426.409,233.348 430.242,225.681 442.5,222.5 Z"/></g>
<g><path style="opacity:0.359" fill="#3b2fd1" d="M 47.5,234.5 C 49.9579,236.493 50.1245,238.826 48,241.5C 47.5034,239.19 47.3367,236.857 47.5,234.5 Z"/></g>
<g><path style="opacity:0.942" fill="#3b2fd1" d="M 59.5,242.5 C 74.3302,242.155 80.1635,249.155 77,263.5C 71.2838,271.976 63.7838,273.809 54.5,269C 49.7981,264.078 48.2981,258.245 50,251.5C 52.2557,247.47 55.4223,244.47 59.5,242.5 Z"/></g>
<g><path style="opacity:0.941" fill="#3b2fd1" d="M 118.5,242.5 C 134.808,243.307 139.974,251.307 134,266.5C 126.599,272.748 118.932,273.082 111,267.5C 104.762,256.39 107.262,248.057 118.5,242.5 Z"/></g>
<g><path style="opacity:0.937" fill="#3b2fd1" d="M 176.5,242.5 C 191.312,242.154 197.146,249.154 194,263.5C 188.803,271.575 181.637,273.742 172.5,270C 164.464,262.578 163.798,254.578 170.5,246C 172.727,245.059 174.727,243.892 176.5,242.5 Z"/></g>
<g><path style="opacity:0.939" fill="#3b2fd1" d="M 235.5,242.5 C 251.489,243.474 256.656,251.474 251,266.5C 246.078,271.202 240.245,272.702 233.5,271C 224.299,265.667 222.133,258.167 227,248.5C 229.322,245.605 232.155,243.605 235.5,242.5 Z"/></g>
<g><path style="opacity:0.933" fill="#3b2fd1" d="M 293.5,242.5 C 308.269,242.1 314.103,249.1 311,263.5C 306.605,271.103 300.105,273.603 291.5,271C 281.516,264.061 280.183,255.728 287.5,246C 289.432,244.541 291.432,243.375 293.5,242.5 Z"/></g>
<g><path style="opacity:0.94" fill="#3b2fd1" d="M 352.5,242.5 C 367.338,242.837 372.838,250.17 369,264.5C 364.532,271.085 358.365,273.252 350.5,271C 341.17,265.718 339.004,258.218 344,248.5C 346.322,245.605 349.155,243.605 352.5,242.5 Z"/></g>
<g><path style="opacity:0.934" fill="#3b2fd1" d="M 410.5,242.5 C 425.265,242.096 431.098,249.096 428,263.5C 423.523,270.886 417.023,273.386 408.5,271C 398.296,264.109 396.963,255.776 404.5,246C 406.432,244.541 408.432,243.375 410.5,242.5 Z"/></g>
<g><path style="opacity:0.898" fill="#3b2fd1" d="M 469.5,242.5 C 470.814,244.915 471.481,247.748 471.5,251C 471.231,257.185 470.731,263.352 470,269.5C 469.692,270.308 469.192,270.975 468.5,271.5C 458.749,266.979 455.916,259.646 460,249.5C 462.529,246.115 465.696,243.782 469.5,242.5 Z"/></g>
<g><path style="opacity:0.926" fill="#3b2fd1" d="M 87.5,262.5 C 99.1647,260.686 105.831,265.519 107.5,277C 108.341,282.142 106.175,284.309 101,283.5C 93.5925,283.039 86.2592,282.372 79,281.5C 76.9962,272.85 79.8296,266.517 87.5,262.5 Z"/></g>
<g><path style="opacity:0.932" fill="#3b2fd1" d="M 146.5,262.5 C 158.005,260.746 164.671,265.579 166.5,277C 165.882,279.974 164.882,282.808 163.5,285.5C 162.5,285.833 161.5,286.167 160.5,286.5C 153.161,285.938 145.828,285.271 138.5,284.5C 134.65,274.711 137.317,267.378 146.5,262.5 Z"/></g>
<g><path style="opacity:0.933" fill="#3b2fd1" d="M 204.5,262.5 C 218.459,261.294 224.959,267.627 224,281.5C 223.208,283.587 222.041,285.421 220.5,287C 213.144,287.831 205.811,287.665 198.5,286.5C 194.683,280.317 194.517,273.984 198,267.5C 199.965,265.45 202.132,263.783 204.5,262.5 Z"/></g>
<g><path style="opacity:0.95" fill="#3b2fd1" d="M 263.5,262.5 C 278.149,261.316 284.316,267.982 282,282.5C 281.293,284.081 280.46,285.581 279.5,287C 272.167,287.667 264.833,287.667 257.5,287C 250.983,276.721 252.983,268.555 263.5,262.5 Z"/></g>
<g><path style="opacity:0.936" fill="#3b2fd1" d="M 321.5,262.5 C 333.12,260.632 339.787,265.465 341.5,277C 341.296,280.28 340.296,283.28 338.5,286C 332.493,286.424 326.493,286.924 320.5,287.5C 316.263,288.429 313.763,286.762 313,282.5C 310.692,273.465 313.526,266.799 321.5,262.5 Z"/></g>
<g><path style="opacity:0.929" fill="#3b2fd1" d="M 380.5,262.5 C 395.839,261.505 401.839,268.505 398.5,283.5C 391.179,284.314 383.846,284.981 376.5,285.5C 373.528,285.647 371.694,284.313 371,281.5C 369.417,272.666 372.583,266.333 380.5,262.5 Z"/></g>
<g><path style="opacity:0.925" fill="#3b2fd1" d="M 438.5,262.5 C 451.836,261.171 458.502,267.171 458.5,280.5C 448.825,281.078 439.159,281.745 429.5,282.5C 427.69,273.466 430.69,266.799 438.5,262.5 Z"/></g>
<g><path style="opacity:0.954" fill="#3b2fd1" d="M -0.5,280.5 C 171.488,297.833 343.488,297.833 515.5,280.5C 515.5,286.167 515.5,291.833 515.5,297.5C 507.178,298.287 498.844,298.954 490.5,299.5C 468.47,377.701 419.803,432.201 344.5,463C 264.556,490.632 189.556,480.966 119.5,434C 73.4317,399.887 42.4317,355.221 26.5,300C 17.489,299.196 8.48902,298.363 -0.5,297.5C -0.5,291.833 -0.5,286.167 -0.5,280.5 Z M 433.5,304.5 C 427.888,312.598 428.221,320.431 434.5,328C 446.709,334.144 454.543,330.644 458,317.5C 458.607,311.096 456.107,306.262 450.5,303C 453.5,302.333 456.5,302.333 459.5,303C 461.25,306.174 462.583,305.841 463.5,302C 465.473,301.505 467.473,301.338 469.5,301.5C 448.278,370.424 404.278,418.591 337.5,446C 262.208,472.004 192.208,462.004 127.5,416C 89.2201,386.296 63.2201,348.13 49.5,301.5C 51.9599,301.699 54.2933,302.365 56.5,303.5C 57.3076,305.925 58.3076,308.258 59.5,310.5C 66.6406,312.176 72.3072,310.009 76.5,304C 78.9712,303.294 81.3046,303.627 83.5,305C 76.8333,312.667 76.8333,320.333 83.5,328C 92.3739,332.51 99.8739,331.01 106,323.5C 108.588,317.114 107.755,311.28 103.5,306C 105.833,305.333 108.167,305.333 110.5,306C 118.319,313.133 126.319,313.3 134.5,306.5C 136.197,306.899 137.863,307.399 139.5,308C 134.794,316.028 136.127,323.028 143.5,329C 156.12,333.194 163.787,328.861 166.5,316C 165.91,313.804 165.243,311.638 164.5,309.5C 165.833,309.167 167.167,308.833 168.5,308.5C 172.482,309.486 176.482,310.486 180.5,311.5C 183.324,311.17 185.991,310.336 188.5,309C 191.466,308.105 194.133,308.605 196.5,310.5C 193.812,325.647 200.146,332.147 215.5,330C 223.73,325.495 226.397,318.662 223.5,309.5C 228.933,309.363 234.266,310.03 239.5,311.5C 244.377,309.958 249.377,309.291 254.5,309.5C 252.068,324.565 258.401,331.399 273.5,330C 281.967,325.723 284.634,319.057 281.5,310C 286.95,309.245 292.283,309.745 297.5,311.5C 302.717,309.745 308.05,309.245 313.5,310C 310.534,325.369 316.867,332.036 332.5,330C 341.148,325.049 343.481,318.049 339.5,309C 342.167,308.333 344.833,308.333 347.5,309C 350.155,310.441 352.988,311.274 356,311.5C 360.565,310.706 364.898,309.373 369,307.5C 370.167,307.833 371.333,308.167 372.5,308.5C 368.433,317.845 370.766,325.011 379.5,330C 394.667,332.167 401.167,325.667 399,310.5C 398.535,309.069 397.701,307.903 396.5,307C 397.873,306.125 399.373,305.625 401,305.5C 409.731,313.547 418.231,313.381 426.5,305C 428.81,304.503 431.143,304.337 433.5,304.5 Z"/></g>
<g><path style="opacity:0.576" fill="#3b2fd1" d="M 120.5,281.5 C 123.702,281.77 126.702,282.604 129.5,284C 124.833,284.667 120.167,284.667 115.5,284C 117.175,283.015 118.842,282.181 120.5,281.5 Z"/></g>
<g><path style="opacity:0.775" fill="#3b2fd1" d="M 178.5,281.5 C 183.51,281.499 187.843,283.165 191.5,286.5C 191.167,286.833 190.833,287.167 190.5,287.5C 183.883,286.704 177.217,286.204 170.5,286C 172.82,283.679 175.486,282.179 178.5,281.5 Z"/></g>
<g><path style="opacity:0.868" fill="#3b2fd1" d="M 237.5,281.5 C 242.545,281.69 246.878,283.523 250.5,287C 242.833,287.667 235.167,287.667 227.5,287C 230.489,284.343 233.822,282.509 237.5,281.5 Z"/></g>
<g><path style="opacity:0.795" fill="#3b2fd1" d="M 295.5,281.5 C 300.7,281.378 305.033,283.211 308.5,287C 301.167,287.667 293.833,287.667 286.5,287C 288.975,284.105 291.975,282.272 295.5,281.5 Z"/></g>
<g><path style="opacity:0.746" fill="#3b2fd1" d="M 354.5,281.5 C 358.179,281.751 361.513,282.918 364.5,285C 358.498,286.303 352.498,286.469 346.5,285.5C 348.991,283.588 351.658,282.254 354.5,281.5 Z"/></g>
<g><path style="opacity:0.285" fill="#3b2fd1" d="M 412.5,281.5 C 414.429,281.231 416.095,281.731 417.5,283C 415.167,283.667 412.833,283.667 410.5,283C 411.416,282.722 412.082,282.222 412.5,281.5 Z"/></g>
<g><path style="opacity:0.844" fill="#3b2fd1" d="M 63.5,321.5 C 72.5455,322.044 77.5455,326.877 78.5,336C 78.3165,339.553 77.1498,342.719 75,345.5C 69.8185,338.137 65.9852,330.137 63.5,321.5 Z"/></g>
<g><path style="opacity:0.937" fill="#3b2fd1" d="M 117.5,321.5 C 132.149,320.316 138.316,326.982 136,341.5C 130.667,350.701 123.167,352.867 113.5,348C 107.028,342.096 105.861,335.262 110,327.5C 112.134,324.847 114.634,322.847 117.5,321.5 Z"/></g>
<g><path style="opacity:0.934" fill="#3b2fd1" d="M 175.5,321.5 C 190.815,320.64 196.981,327.64 194,342.5C 189.07,350.393 182.237,352.56 173.5,349C 165.419,342.839 163.919,335.339 169,326.5C 170.965,324.45 173.132,322.783 175.5,321.5 Z"/></g>
<g><path style="opacity:0.938" fill="#3b2fd1" d="M 233.5,321.5 C 249.767,320.374 255.933,327.707 252,343.5C 246.095,350.862 238.928,352.362 230.5,348C 224.451,342.605 222.951,336.105 226,328.5C 228.015,325.588 230.515,323.255 233.5,321.5 Z"/></g>
<g><path style="opacity:0.935" fill="#3b2fd1" d="M 292.5,321.5 C 307.799,320.625 313.965,327.625 311,342.5C 305.966,350.066 299.133,352.233 290.5,349C 283.542,344.126 281.375,337.626 284,329.5C 286.074,325.923 288.907,323.256 292.5,321.5 Z"/></g>
<g><path style="opacity:0.941" fill="#3b2fd1" d="M 350.5,321.5 C 365.09,319.69 371.59,326.024 370,340.5C 366.371,348.564 360.205,351.731 351.5,350C 342.018,345.565 339.184,338.398 343,328.5C 345.015,325.588 347.515,323.255 350.5,321.5 Z"/></g>
<g><path style="opacity:0.934" fill="#3b2fd1" d="M 409.5,321.5 C 424.305,320.465 430.472,327.131 428,341.5C 422.694,350.701 415.194,352.868 405.5,348C 396.601,337.563 397.934,328.73 409.5,321.5 Z"/></g>
<g><path style="opacity:0.923" fill="#3b2fd1" d="M 90.5,340.5 C 105.816,342.129 110.649,350.129 105,364.5C 100.459,369.803 95.1259,371.136 89,368.5C 85.1192,363.237 81.6192,357.737 78.5,352C 80.4671,345.862 84.4671,342.029 90.5,340.5 Z"/></g>
<g><path style="opacity:0.938" fill="#3b2fd1" d="M 149.5,340.5 C 164.006,342.19 168.839,349.857 164,363.5C 157.536,371.216 150.036,372.383 141.5,367C 135.368,360.063 135.035,352.897 140.5,345.5C 143.154,343.011 146.154,341.344 149.5,340.5 Z"/></g>
<g><path style="opacity:0.932" fill="#3b2fd1" d="M 207.5,340.5 C 217.917,340.256 223.584,345.256 224.5,355.5C 223.841,364.825 218.841,369.825 209.5,370.5C 196.025,367.273 192.191,359.273 198,346.5C 200.551,343.319 203.718,341.319 207.5,340.5 Z"/></g>
<g><path style="opacity:0.933" fill="#3b2fd1" d="M 266.5,340.5 C 280.891,342.068 285.724,349.735 281,363.5C 271.933,372.987 263.266,372.654 255,362.5C 251.338,351.045 255.171,343.711 266.5,340.5 Z"/></g>
<g><path style="opacity:0.934" fill="#3b2fd1" d="M 324.5,340.5 C 340.48,342.645 344.98,350.978 338,365.5C 329.349,372.614 321.349,371.947 314,363.5C 309.752,352.02 313.252,344.353 324.5,340.5 Z"/></g>
<g><path style="opacity:0.934" fill="#3b2fd1" d="M 383.5,340.5 C 397.401,342.283 402.234,349.95 398,363.5C 388.876,372.973 380.21,372.64 372,362.5C 368.338,351.045 372.171,343.711 383.5,340.5 Z"/></g>
<g><path style="opacity:0.866" fill="#3b2fd1" d="M 441.5,340.5 C 443.665,340.116 445.332,340.783 446.5,342.5C 442.333,350.172 437.666,357.505 432.5,364.5C 426.124,352.947 429.124,344.947 441.5,340.5 Z"/></g>
<g><path style="opacity:0.938" fill="#3b2fd1" d="M 118.5,360.5 C 134.783,361.288 139.95,369.288 134,384.5C 126.599,390.748 118.932,391.082 111,385.5C 104.432,374.287 106.932,365.954 118.5,360.5 Z"/></g>
<g><path style="opacity:0.935" fill="#3b2fd1" d="M 176.5,360.5 C 189.485,359.653 195.652,365.653 195,378.5C 190.328,389.616 182.495,392.449 171.5,387C 164.164,379.65 163.83,371.983 170.5,364C 172.432,362.541 174.432,361.375 176.5,360.5 Z"/></g>
<g><path style="opacity:0.938" fill="#3b2fd1" d="M 235.5,360.5 C 251.783,361.288 256.95,369.288 251,384.5C 243.599,390.748 235.932,391.082 228,385.5C 221.432,374.287 223.932,365.954 235.5,360.5 Z"/></g>
<g><path style="opacity:0.936" fill="#3b2fd1" d="M 293.5,360.5 C 308.269,360.1 314.103,367.1 311,381.5C 305.755,389.465 298.589,391.632 289.5,388C 281.222,380.618 280.556,372.618 287.5,364C 289.432,362.541 291.432,361.375 293.5,360.5 Z"/></g>
<g><path style="opacity:0.939" fill="#3b2fd1" d="M 351.5,360.5 C 366.826,360.323 372.66,367.657 369,382.5C 362.874,390.01 355.374,391.51 346.5,387C 338.584,376.299 340.25,367.466 351.5,360.5 Z"/></g>
<g><path style="opacity:0.918" fill="#3b2fd1" d="M 410.5,360.5 C 419.181,359.209 425.181,362.543 428.5,370.5C 425.524,374.644 422.357,378.644 419,382.5C 416.618,385.219 413.951,387.553 411,389.5C 399.549,384.48 396.882,376.48 403,365.5C 405.17,363.177 407.67,361.51 410.5,360.5 Z"/></g>
<g><path style="opacity:0.935" fill="#3b2fd1" d="M 146.5,380.5 C 161.262,379.424 167.429,386.09 165,400.5C 159.694,409.701 152.194,411.868 142.5,407C 136.688,401.896 135.188,395.729 138,388.5C 140.098,384.897 142.932,382.23 146.5,380.5 Z"/></g>
<g><path style="opacity:0.937" fill="#3b2fd1" d="M 204.5,380.5 C 218.459,379.294 224.959,385.627 224,399.5C 217.855,410.373 209.522,412.373 199,405.5C 194.75,399.07 194.417,392.404 198,385.5C 199.965,383.45 202.132,381.783 204.5,380.5 Z"/></g>
<g><path style="opacity:0.94" fill="#3b2fd1" d="M 263.5,380.5 C 278.149,379.316 284.316,385.982 282,400.5C 276.667,409.701 269.167,411.867 259.5,407C 253.688,401.896 252.188,395.729 255,388.5C 257.098,384.897 259.932,382.23 263.5,380.5 Z"/></g>
<g><path style="opacity:0.94" fill="#3b2fd1" d="M 321.5,380.5 C 336.781,379.61 342.948,386.61 340,401.5C 335.07,409.393 328.237,411.56 319.5,408C 311.99,401.874 310.49,394.374 315,385.5C 316.965,383.45 319.132,381.783 321.5,380.5 Z"/></g>
<g><path style="opacity:0.939" fill="#3b2fd1" d="M 380.5,380.5 C 395.149,379.316 401.316,385.982 399,400.5C 393.532,409.7 386.032,411.867 376.5,407C 367.499,396.489 368.833,387.656 380.5,380.5 Z"/></g>
<g><path style="opacity:0.778" fill="#3b2fd1" d="M 119.5,399.5 C 130.044,399.219 135.544,404.219 136,414.5C 131.923,411.212 127.756,408.045 123.5,405C 121.536,403.549 120.203,401.716 119.5,399.5 Z"/></g>
<g><path style="opacity:0.933" fill="#3b2fd1" d="M 178.5,399.5 C 188.515,399.662 194.182,404.662 195.5,414.5C 194.833,423.833 189.833,428.833 180.5,429.5C 167.404,426.64 163.237,418.973 168,406.5C 170.701,402.748 174.201,400.415 178.5,399.5 Z"/></g>
<g><path style="opacity:0.931" fill="#3b2fd1" d="M 236.5,399.5 C 251.803,401.101 256.637,409.101 251,423.5C 243,431.5 235,431.5 227,423.5C 221.615,411.955 224.781,403.955 236.5,399.5 Z"/></g>
<g><path style="opacity:0.935" fill="#3b2fd1" d="M 295.5,399.5 C 305.481,399.651 311.147,404.651 312.5,414.5C 311.5,423.5 306.5,428.5 297.5,429.5C 284.422,426.677 280.255,419.011 285,406.5C 287.701,402.748 291.201,400.415 295.5,399.5 Z"/></g>
<g><path style="opacity:0.93" fill="#3b2fd1" d="M 353.5,399.5 C 368.803,401.101 373.637,409.101 368,423.5C 359.946,431.482 351.946,431.482 344,423.5C 338.643,411.905 341.809,403.905 353.5,399.5 Z"/></g>
<g><path style="opacity:0.775" fill="#3b2fd1" d="M 147.5,419.5 C 156.393,418.256 162.393,421.756 165.5,430C 165.167,430.5 164.833,431 164.5,431.5C 158.111,428.598 152.111,425.098 146.5,421C 147.056,420.617 147.389,420.117 147.5,419.5 Z"/></g>
<g><path style="opacity:0.939" fill="#3b2fd1" d="M 205.5,419.5 C 218.983,418.815 225.15,425.149 224,438.5C 219.304,448.83 211.804,451.33 201.5,446C 198.619,444.749 196.786,442.583 196,439.5C 195.333,435.833 195.333,432.167 196,428.5C 198.406,424.592 201.572,421.592 205.5,419.5 Z"/></g>
<g><path style="opacity:0.941" fill="#3b2fd1" d="M 264.5,419.5 C 278.431,419.012 284.265,425.679 282,439.5C 277.241,448.419 270.074,450.919 260.5,447C 253.267,441.033 251.767,433.867 256,425.5C 258.322,422.605 261.155,420.605 264.5,419.5 Z"/></g>
<g><path style="opacity:0.929" fill="#3b2fd1" d="M 322.5,419.5 C 335.945,418.774 341.945,424.941 340.5,438C 332.842,441.778 324.842,444.111 316.5,445C 311.167,437.667 311.167,430.333 316.5,423C 318.432,421.541 320.432,420.375 322.5,419.5 Z"/></g>
<g><path style="opacity:0.899" fill="#3b2fd1" d="M 233.5,439.5 C 245.247,437.346 251.914,442.013 253.5,453.5C 243.679,453.868 234.012,452.868 224.5,450.5C 225.869,445.391 228.869,441.724 233.5,439.5 Z"/></g>
<g><path style="opacity:0.884" fill="#3b2fd1" d="M 292.5,439.5 C 299.555,438.111 305.388,440.111 310,445.5C 310.483,446.448 310.649,447.448 310.5,448.5C 301.239,450.433 291.905,451.6 282.5,452C 283.825,446.18 287.159,442.013 292.5,439.5 Z"/></g>
<g><path style="opacity:0.993" fill="#3b2fd1" d="M 401.5,458.5 C 402.499,514.998 402.832,571.664 402.5,628.5C 356.747,636.938 310.58,640.938 264,640.5C 214.36,641.131 165.194,636.797 116.5,627.5C 116.333,571.832 116.5,516.166 117,460.5C 134.121,474.98 153.621,485.146 175.5,491C 216.953,501.837 258.953,504.504 301.5,499C 335.28,494.965 366.28,483.632 394.5,465C 396.907,462.817 399.24,460.65 401.5,458.5 Z"/></g>
<g><path style="opacity:0.996" fill="#3b2fd1" d="M 266.5,1050.5 C 262.167,1050.5 257.833,1050.5 253.5,1050.5C 210.194,1046.38 175.694,1026.71 150,991.5C 131.461,964.732 120.461,935.066 117,902.5C 116.5,822.501 116.333,742.501 116.5,662.5C 110.504,661.501 104.504,660.501 98.5,659.5C 98.1734,654.786 98.5067,650.12 99.5,645.5C 150.215,657.908 201.715,663.575 254,662.5C 309.881,663.405 365.048,657.739 419.5,645.5C 419.5,650.167 419.5,654.833 419.5,659.5C 413.808,660.372 408.141,661.372 402.5,662.5C 402.667,741.167 402.5,819.834 402,898.5C 397.968,948.401 377.134,989.567 339.5,1022C 317.842,1038.49 293.509,1047.99 266.5,1050.5 Z"/></g>
</svg>
