<?xml version="1.0" encoding="UTF-8"?>
<!DOCTYPE svg PUBLIC "-//W3C//DTD SVG 1.1//EN" "http://www.w3.org/Graphics/SVG/1.1/DTD/svg11.dtd">
<svg xmlns="http://www.w3.org/2000/svg" version="1.1" width="512px" height="512px" style="shape-rendering:geometricPrecision; text-rendering:geometricPrecision; image-rendering:optimizeQuality; fill-rule:evenodd; clip-rule:evenodd" xmlns:xlink="http://www.w3.org/1999/xlink">
<g><path style="opacity:0.935" fill="#000000" d="M 240.5,-0.5 C 250.833,-0.5 261.167,-0.5 271.5,-0.5C 317.795,7.28461 350.628,32.6179 370,75.5C 373.112,83.6161 375.446,91.9494 377,100.5C 378.428,124.466 378.928,148.466 378.5,172.5C 387.833,172.5 397.167,172.5 406.5,172.5C 406.334,164.826 406.5,157.159 407,149.5C 408.465,143.347 412.298,141.18 418.5,143C 419.667,144.167 420.833,145.333 422,146.5C 422.5,155.16 422.666,163.827 422.5,172.5C 429.175,172.666 435.842,172.5 442.5,172C 447.103,166.021 453.103,164.021 460.5,166C 470.728,171.266 473.228,179.099 468,189.5C 459.353,197.62 450.853,197.453 442.5,189C 435.842,188.5 429.175,188.334 422.5,188.5C 425.298,256.077 398.631,308.244 342.5,345C 318.174,359.499 291.84,367.333 263.5,368.5C 263.667,380.505 263.5,392.505 263,404.5C 256.45,410.577 251.45,409.577 248,401.5C 247.5,390.505 247.333,379.505 247.5,368.5C 179.554,362.628 131.054,328.961 102,267.5C 91.8854,242.146 87.3854,215.813 88.5,188.5C 81.825,188.334 75.1583,188.5 68.5,189C 60.1465,197.453 51.6465,197.62 43,189.5C 37.7723,179.099 40.2723,171.266 50.5,166C 57.8972,164.021 63.8972,166.021 68.5,172C 75.1583,172.5 81.825,172.666 88.5,172.5C 88.3336,164.826 88.5003,157.159 89,149.5C 90.4651,143.347 94.2984,141.18 100.5,143C 101.667,144.167 102.833,145.333 104,146.5C 104.5,155.16 104.666,163.827 104.5,172.5C 113.833,172.5 123.167,172.5 132.5,172.5C 132.333,153.83 132.5,135.164 133,116.5C 135.643,75.6976 153.476,43.531 186.5,20C 203.204,9.49134 221.204,2.65801 240.5,-0.5 Z M 245.5,15.5 C 252.5,15.5 259.5,15.5 266.5,15.5C 266.333,30.5037 266.5,45.5037 267,60.5C 269.558,64.2116 273.058,65.3783 277.5,64C 279.333,63.5 280.5,62.3333 281,60.5C 282.115,46.5558 282.949,32.5558 283.5,18.5C 289.657,20.4411 295.657,22.7745 301.5,25.5C 302.039,37.5814 302.873,49.5814 304,61.5C 308.261,65.4227 312.594,65.4227 317,61.5C 318.275,52.935 318.942,44.2684 319,35.5C 339.841,51.8405 353.675,72.8405 360.5,98.5C 336.507,99.3331 312.507,99.8331 288.5,100C 280.933,104.58 280.599,109.58 287.5,115C 312.498,115.5 337.498,115.667 362.5,115.5C 363.165,122.48 363.498,129.48 363.5,136.5C 337.831,136.333 312.165,136.5 286.5,137C 280.369,144.017 281.703,149.017 290.5,152C 314.831,152.5 339.164,152.667 363.5,152.5C 363.5,159.167 363.5,165.833 363.5,172.5C 338.164,172.333 312.831,172.5 287.5,173C 280.599,178.42 280.933,183.42 288.5,188C 313.498,188.5 338.498,188.667 363.5,188.5C 363.546,195.191 363.212,201.857 362.5,208.5C 338.164,208.333 313.831,208.5 289.5,209C 281.538,212.522 280.538,217.522 286.5,224C 311.173,224.167 335.84,224.667 360.5,225.5C 346.792,273.698 315.125,301.531 265.5,309C 214.954,310.754 178.788,288.921 157,243.5C 154.387,237.378 152.553,231.045 151.5,224.5C 175.836,224.667 200.169,224.5 224.5,224C 228.723,221.005 229.889,217.171 228,212.5C 226.681,210.513 224.848,209.346 222.5,209C 197.836,208.5 173.169,208.333 148.5,208.5C 148.5,201.833 148.5,195.167 148.5,188.5C 173.502,188.667 198.502,188.5 223.5,188C 230.955,183.439 231.288,178.439 224.5,173C 199.169,172.5 173.836,172.333 148.5,172.5C 148.5,165.833 148.5,159.167 148.5,152.5C 172.836,152.667 197.169,152.5 221.5,152C 228.858,149.726 230.692,145.226 227,138.5C 226.25,137.874 225.416,137.374 224.5,137C 199.169,136.5 173.836,136.333 148.5,136.5C 148.5,129.5 148.5,122.5 148.5,115.5C 173.836,115.667 199.169,115.5 224.5,115C 231.288,109.561 230.955,104.561 223.5,100C 199.502,99.5 175.502,99.3334 151.5,99.5C 157.552,73.0495 171.385,51.7162 193,35.5C 193.333,43.8333 193.667,52.1667 194,60.5C 198.3,65.4459 202.967,65.7793 208,61.5C 209.106,49.5556 209.939,37.5556 210.5,25.5C 216.287,22.6059 222.287,20.2725 228.5,18.5C 229.05,32.8892 229.883,47.2225 231,61.5C 236.033,65.7793 240.7,65.4459 245,60.5C 245.5,45.5037 245.667,30.5037 245.5,15.5 Z M 104.5,188.5 C 113.833,188.5 123.167,188.5 132.5,188.5C 129.799,233.912 145.799,271.079 180.5,300C 218.589,327.011 259.589,332.345 303.5,316C 345.74,296.416 370.573,263.582 378,217.5C 378.5,207.839 378.666,198.172 378.5,188.5C 387.833,188.5 397.167,188.5 406.5,188.5C 409.1,253.292 382.766,302.126 327.5,335C 273.174,361.396 220.508,358.396 169.5,326C 124.099,291.686 102.432,245.853 104.5,188.5 Z"/></g>
<g><path style="opacity:0.864" fill="#000000" d="M 237.5,246.5 C 245.473,246.638 248.973,250.638 248,258.5C 245.598,264.092 241.431,265.925 235.5,264C 230.845,261.103 229.345,256.937 231,251.5C 232.805,249.174 234.972,247.508 237.5,246.5 Z"/></g>
<g><path style="opacity:0.88" fill="#000000" d="M 207.5,254.5 C 219.23,254.382 222.564,259.549 217.5,270C 207.062,274.228 202.228,270.728 203,259.5C 204.025,257.313 205.525,255.646 207.5,254.5 Z"/></g>
<g><path style="opacity:0.864" fill="#000000" d="M 244.5,275.5 C 253.015,275.844 256.515,280.177 255,288.5C 252.058,293.153 247.891,294.653 242.5,293C 235.393,286.159 236.06,280.326 244.5,275.5 Z"/></g>
<g><path style="opacity:0.98" fill="#000000" d="M 373.5,511.5 C 295.167,511.5 216.833,511.5 138.5,511.5C 134.3,507.982 133.467,503.649 136,498.5C 136.75,497.874 137.584,497.374 138.5,497C 174.832,496.5 211.165,496.333 247.5,496.5C 247.333,479.163 247.5,461.83 248,444.5C 251.555,436.589 256.555,435.589 263,441.5C 263.5,459.83 263.667,478.164 263.5,496.5C 300.168,496.333 336.835,496.5 373.5,497C 378.786,501.831 378.786,506.665 373.5,511.5 Z"/></g>
</svg>
