<?xml version="1.0" encoding="UTF-8"?>
<!DOCTYPE svg PUBLIC "-//W3C//DTD SVG 1.1//EN" "http://www.w3.org/Graphics/SVG/1.1/DTD/svg11.dtd">
<svg xmlns="http://www.w3.org/2000/svg" version="1.1" width="515px" height="1051px" style="shape-rendering:geometricPrecision; text-rendering:geometricPrecision; image-rendering:optimizeQuality; fill-rule:evenodd; clip-rule:evenodd" xmlns:xlink="http://www.w3.org/1999/xlink">
<g><path style="opacity:0.954" fill="#fefffe" d="M 250.5,-0.5 C 255.833,-0.5 261.167,-0.5 266.5,-0.5C 351.317,4.64499 416.817,42.645 463,113.5C 491.218,160.374 502.384,211.04 496.5,265.5C 496.182,266.647 495.516,267.481 494.5,268C 488.536,269.161 482.536,269.994 476.5,270.5C 485.044,180.105 452.377,108.938 378.5,57C 300.56,10.6118 222.226,9.9451 143.5,55C 83.0814,94.843 48.9147,151.01 41,223.5C 40.1395,240.548 40.6395,257.548 42.5,274.5C 35.5644,273.946 28.7311,272.946 22,271.5C 12.4888,184.668 40.3222,112.502 105.5,55C 147.782,20.8655 196.115,2.36555 250.5,-0.5 Z"/></g>
<g><path style="opacity:0.938" fill="#fefffe" d="M 258.5,29.5 C 265.528,29.8354 272.528,30.5021 279.5,31.5C 285.054,41.3787 283.054,49.212 273.5,55C 259.524,56.6908 253.024,50.5241 254,36.5C 255.012,33.7982 256.512,31.4649 258.5,29.5 Z"/></g>
<g><path style="opacity:0.761" fill="#fefffe" d="M 237.5,30.5 C 254.282,29.3964 254.615,31.3964 238.5,36.5C 227.54,34.0115 227.206,32.0115 237.5,30.5 Z"/></g>
<g><path style="opacity:0.618" fill="#fefffe" d="M 287.5,32.5 C 287.56,31.9569 287.893,31.6236 288.5,31.5C 293.345,32.1631 298.012,33.3297 302.5,35C 297.059,36.8907 292.059,36.0574 287.5,32.5 Z"/></g>
<g><path style="opacity:0.923" fill="#fefffe" d="M 217.5,33.5 C 221.162,32.6371 223.328,33.9704 224,37.5C 224.495,51.0009 217.995,56.8343 204.5,55C 197.435,52.0356 194.768,46.869 196.5,39.5C 203.572,37.3194 210.572,35.3194 217.5,33.5 Z"/></g>
<g><path style="opacity:0.902" fill="#fefffe" d="M 312.5,36.5 C 322.212,38.8478 331.545,42.1812 340.5,46.5C 334.946,55.8002 327.279,57.9669 317.5,53C 312.8,48.3571 311.133,42.8571 312.5,36.5 Z"/></g>
<g><path style="opacity:0.935" fill="#fefffe" d="M 175.5,46.5 C 193.095,46.2545 198.595,54.2545 192,70.5C 184.333,77.1667 176.667,77.1667 169,70.5C 163.153,60.2204 165.32,52.2204 175.5,46.5 Z"/></g>
<g><path style="opacity:0.938" fill="#fefffe" d="M 233.5,46.5 C 248.134,44.6353 254.634,50.9687 253,65.5C 247.952,75.1829 240.452,77.6829 230.5,73C 223.991,66.788 222.825,59.6213 227,51.5C 228.965,49.4497 231.132,47.783 233.5,46.5 Z"/></g>
<g><path style="opacity:0.937" fill="#fefffe" d="M 291.5,46.5 C 306.828,44.9902 313.328,51.6569 311,66.5C 306.35,74.7344 299.516,77.2344 290.5,74C 283.15,69.2827 280.983,62.7827 284,54.5C 286.028,51.3078 288.528,48.6411 291.5,46.5 Z"/></g>
<g><path style="opacity:0.923" fill="#fefffe" d="M 346.5,48.5 C 354.581,51.7071 362.247,55.7071 369.5,60.5C 369.394,71.4211 363.728,76.2544 352.5,75C 342.858,71.8857 339.358,65.3857 342,55.5C 343.012,52.7982 344.512,50.4649 346.5,48.5 Z"/></g>
<g><path style="opacity:0.935" fill="#fefffe" d="M 147.5,65.5 C 163.808,66.3074 168.974,74.3074 163,89.5C 153.993,97.7259 145.659,97.0592 138,87.5C 134.51,77.1027 137.676,69.7694 147.5,65.5 Z"/></g>
<g><path style="opacity:0.938" fill="#fefffe" d="M 206.5,65.5 C 216.986,64.8957 222.986,69.7291 224.5,80C 221.973,93.43 214.306,97.7634 201.5,93C 195.78,88.1162 193.947,81.9495 196,74.5C 198.489,70.1675 201.989,67.1675 206.5,65.5 Z"/></g>
<g><path style="opacity:0.937" fill="#fefffe" d="M 264.5,65.5 C 280.489,66.4739 285.656,74.4739 280,89.5C 272.593,96.8672 264.927,97.2005 257,90.5C 250.762,79.3904 253.262,71.057 264.5,65.5 Z"/></g>
<g><path style="opacity:0.937" fill="#fefffe" d="M 323.5,65.5 C 338.649,66.4681 343.816,74.1347 339,88.5C 330.697,97.6276 322.364,97.6276 314,88.5C 309.478,77.554 312.645,69.8873 323.5,65.5 Z"/></g>
<g><path style="opacity:0.924" fill="#fefffe" d="M 376.5,67.5 C 385.081,70.5639 392.581,75.5639 399,82.5C 398.015,90.4773 393.349,94.8107 385,95.5C 373.422,93.6798 368.756,87.0131 371,75.5C 372.273,72.4027 374.107,69.7361 376.5,67.5 Z"/></g>
<g><path style="opacity:0.939" fill="#fefffe" d="M 117.5,85.5 C 130.982,84.8143 137.149,91.1476 136,104.5C 132.73,112.943 126.563,116.11 117.5,114C 108.054,109.691 105.22,102.524 109,92.5C 111.464,89.519 114.297,87.1856 117.5,85.5 Z"/></g>
<g><path style="opacity:0.932" fill="#fefffe" d="M 175.5,85.5 C 190.755,84.5845 196.921,91.5845 194,106.5C 188.199,114.873 180.699,116.707 171.5,112C 165.999,106.831 164.499,100.664 167,93.5C 169.074,89.9231 171.907,87.2565 175.5,85.5 Z"/></g>
<g><path style="opacity:0.941" fill="#fefffe" d="M 234.5,85.5 C 247.982,84.8143 254.149,91.1476 253,104.5C 248.565,113.982 241.398,116.816 231.5,113C 224.915,108.532 222.748,102.365 225,94.5C 226.871,90.0064 230.038,87.0064 234.5,85.5 Z"/></g>
<g><path style="opacity:0.935" fill="#fefffe" d="M 292.5,85.5 C 307.3,84.4594 313.466,91.1261 311,105.5C 305.718,114.83 298.218,116.996 288.5,112C 282.688,106.896 281.188,100.729 284,93.5C 286.074,89.9231 288.907,87.2565 292.5,85.5 Z"/></g>
<g><path style="opacity:0.938" fill="#fefffe" d="M 351.5,85.5 C 364.982,84.8143 371.149,91.1476 370,104.5C 366.279,113.193 359.779,116.359 350.5,114C 342.39,109.936 339.557,103.436 342,94.5C 343.871,90.0064 347.038,87.0064 351.5,85.5 Z"/></g>
<g><path style="opacity:0.907" fill="#fefffe" d="M 404.5,88.5 C 412.644,94.4786 419.644,101.645 425.5,110C 417.247,116.358 409.413,115.858 402,108.5C 398.209,101.208 399.042,94.5411 404.5,88.5 Z"/></g>
<g><path style="opacity:0.913" fill="#fefffe" d="M 96.5,105.5 C 107.122,110.104 109.955,117.771 105,128.5C 96.6859,136.6 88.5193,136.433 80.5,128C 85.2759,120.065 90.6093,112.565 96.5,105.5 Z"/></g>
<g><path style="opacity:0.94" fill="#fefffe" d="M 145.5,105.5 C 160.653,103.819 167.153,110.486 165,125.5C 159.452,134.349 151.952,136.515 142.5,132C 136.587,126.557 135.087,120.057 138,112.5C 140.015,109.588 142.515,107.255 145.5,105.5 Z"/></g>
<g><path style="opacity:0.943" fill="#fefffe" d="M 204.5,105.5 C 216.102,103.609 222.769,108.442 224.5,120C 223.667,128.833 218.833,133.667 210,134.5C 196.643,132.131 192.309,124.464 197,111.5C 199.134,108.847 201.634,106.847 204.5,105.5 Z"/></g>
<g><path style="opacity:0.938" fill="#fefffe" d="M 262.5,105.5 C 279.019,104.183 285.185,111.516 281,127.5C 272.963,136.366 264.63,136.699 256,128.5C 251.215,118.703 253.382,111.036 262.5,105.5 Z"/></g>
<g><path style="opacity:0.935" fill="#fefffe" d="M 320.5,105.5 C 333.946,103.459 340.779,109.126 341,122.5C 336.22,134.65 328.054,137.483 316.5,131C 309.263,121.121 310.597,112.621 320.5,105.5 Z"/></g>
<g><path style="opacity:0.938" fill="#fefffe" d="M 379.5,105.5 C 396.955,104.447 402.789,112.113 397,128.5C 389,136.5 381,136.5 373,128.5C 368.215,118.703 370.382,111.036 379.5,105.5 Z"/></g>
<g><path style="opacity:0.753" fill="#fefffe" d="M 429.5,115.5 C 433.557,120.59 437.39,125.923 441,131.5C 441.749,132.635 441.583,133.635 440.5,134.5C 431.404,131.307 427.737,124.973 429.5,115.5 Z"/></g>
<g><path style="opacity:0.937" fill="#fefffe" d="M 118.5,124.5 C 134.489,125.474 139.656,133.474 134,148.5C 127.459,154.126 120.292,154.96 112.5,151C 106.896,144.803 106.063,137.969 110,130.5C 112.322,127.605 115.155,125.605 118.5,124.5 Z"/></g>
<g><path style="opacity:0.939" fill="#fefffe" d="M 177.5,124.5 C 188.267,123.873 194.267,128.873 195.5,139.5C 192.756,152.541 185.09,156.707 172.5,152C 164.784,145.536 163.617,138.036 169,129.5C 171.682,127.415 174.516,125.748 177.5,124.5 Z"/></g>
<g><path style="opacity:0.94" fill="#fefffe" d="M 235.5,124.5 C 250.338,124.837 255.838,132.17 252,146.5C 247.532,153.085 241.365,155.252 233.5,153C 224.17,147.718 222.004,140.218 227,130.5C 229.322,127.605 232.155,125.605 235.5,124.5 Z"/></g>
<g><path style="opacity:0.937" fill="#fefffe" d="M 293.5,124.5 C 307.857,124.591 313.69,131.591 311,145.5C 306.605,153.103 300.105,155.603 291.5,153C 281.321,146.084 279.988,137.75 287.5,128C 289.432,126.541 291.432,125.375 293.5,124.5 Z"/></g>
<g><path style="opacity:0.939" fill="#fefffe" d="M 352.5,124.5 C 367.316,124.818 372.816,132.151 369,146.5C 364.532,153.085 358.365,155.252 350.5,153C 341.581,148.241 339.081,141.074 343,131.5C 345.529,128.115 348.696,125.782 352.5,124.5 Z"/></g>
<g><path style="opacity:0.941" fill="#fefffe" d="M 410.5,124.5 C 424.035,124.531 429.869,131.198 428,144.5C 424.029,152.724 417.529,155.558 408.5,153C 399.298,147.652 397.131,140.152 402,130.5C 404.671,128.098 407.505,126.098 410.5,124.5 Z"/></g>
<g><path style="opacity:0.76" fill="#fefffe" d="M 76.5,134.5 C 79.7597,143.008 77.0931,149.342 68.5,153.5C 67.4173,152.635 67.2506,151.635 68,150.5C 70.5913,144.981 73.4247,139.648 76.5,134.5 Z"/></g>
<g><path style="opacity:0.94" fill="#fefffe" d="M 87.5,144.5 C 102.815,143.64 108.981,150.64 106,165.5C 101.745,172.54 95.5779,175.04 87.5,173C 79.3901,168.936 76.5567,162.436 79,153.5C 80.6878,149.315 83.5212,146.315 87.5,144.5 Z"/></g>
<g><path style="opacity:0.94" fill="#fefffe" d="M 146.5,144.5 C 163.627,144.408 169.127,152.408 163,168.5C 156.766,174.008 149.933,174.841 142.5,171C 136.028,165.096 134.861,158.262 139,150.5C 141.114,147.879 143.614,145.879 146.5,144.5 Z"/></g>
<g><path style="opacity:0.937" fill="#fefffe" d="M 204.5,144.5 C 219.815,143.64 225.981,150.64 223,165.5C 217.199,173.873 209.699,175.707 200.5,171C 194.874,164.459 194.04,157.292 198,149.5C 199.965,147.45 202.132,145.783 204.5,144.5 Z"/></g>
<g><path style="opacity:0.94" fill="#fefffe" d="M 263.5,144.5 C 278.107,143.387 284.274,150.054 282,164.5C 277.14,173.122 269.974,175.622 260.5,172C 253.136,166.054 251.636,158.888 256,150.5C 258.134,147.847 260.634,145.847 263.5,144.5 Z"/></g>
<g><path style="opacity:0.933" fill="#fefffe" d="M 321.5,144.5 C 336.815,143.64 342.981,150.64 340,165.5C 334.199,173.873 326.699,175.707 317.5,171C 311.064,164.441 310.231,157.274 315,149.5C 316.965,147.45 319.132,145.783 321.5,144.5 Z"/></g>
<g><path style="opacity:0.94" fill="#fefffe" d="M 380.5,144.5 C 394.653,143.152 400.82,149.486 399,163.5C 394.691,172.946 387.524,175.78 377.5,172C 370.559,166.605 368.726,159.771 372,151.5C 374.464,148.519 377.297,146.186 380.5,144.5 Z"/></g>
<g><path style="opacity:0.928" fill="#fefffe" d="M 438.5,144.5 C 441.898,144.18 445.232,144.513 448.5,145.5C 451.273,150.713 453.773,156.046 456,161.5C 456.811,167.377 454.311,171.21 448.5,173C 433.185,174.354 427.019,167.521 430,152.5C 432.074,148.923 434.907,146.256 438.5,144.5 Z"/></g>
<g><path style="opacity:0.925" fill="#fefffe" d="M 61.5,164.5 C 71.3397,164 77.0064,168.667 78.5,178.5C 77.8333,187.833 72.8333,192.833 63.5,193.5C 60.676,193.17 58.0094,192.336 55.5,191C 54.9186,190.107 54.5852,189.107 54.5,188C 56.5354,180.062 58.8688,172.229 61.5,164.5 Z"/></g>
<g><path style="opacity:0.937" fill="#fefffe" d="M 116.5,164.5 C 133.955,163.447 139.789,171.113 134,187.5C 126,195.5 118,195.5 110,187.5C 105.031,177.638 107.198,169.971 116.5,164.5 Z"/></g>
<g><path style="opacity:0.937" fill="#fefffe" d="M 174.5,164.5 C 186.363,162.047 193.363,166.714 195.5,178.5C 193.09,190.876 185.757,195.376 173.5,192C 162.62,182.44 162.953,173.273 174.5,164.5 Z"/></g>
<g><path style="opacity:0.939" fill="#fefffe" d="M 233.5,164.5 C 248.134,162.635 254.634,168.969 253,183.5C 248.711,192.376 241.877,195.209 232.5,192C 224.127,186.199 222.293,178.699 227,169.5C 228.965,167.45 231.132,165.783 233.5,164.5 Z"/></g>
<g><path style="opacity:0.937" fill="#fefffe" d="M 291.5,164.5 C 303.371,162.057 310.371,166.724 312.5,178.5C 308.905,192.631 300.572,196.464 287.5,190C 280.033,180.099 281.367,171.599 291.5,164.5 Z"/></g>
<g><path style="opacity:0.94" fill="#fefffe" d="M 350.5,164.5 C 364.638,162.476 371.138,168.476 370,182.5C 365.508,193 358.008,195.834 347.5,191C 340.991,184.788 339.825,177.621 344,169.5C 345.965,167.45 348.132,165.783 350.5,164.5 Z"/></g>
<g><path style="opacity:0.941" fill="#fefffe" d="M 408.5,164.5 C 423.621,162.787 430.121,169.454 428,184.5C 421.925,193.971 414.092,195.805 404.5,190C 396.893,180.005 398.227,171.505 408.5,164.5 Z"/></g>
<g><path style="opacity:0.751" fill="#fefffe" d="M 459.5,172.5 C 462.459,178.358 464.126,184.358 464.5,190.5C 462.142,188.976 460.309,186.976 459,184.5C 458.238,180.413 458.404,176.413 459.5,172.5 Z"/></g>
<g><path style="opacity:0.941" fill="#fefffe" d="M 89.5,183.5 C 102.471,183.303 108.304,189.636 107,202.5C 101.894,212.844 94.0609,215.344 83.5,210C 78.339,204.28 77.1724,197.78 80,190.5C 82.529,187.115 85.6956,184.782 89.5,183.5 Z"/></g>
<g><path style="opacity:0.94" fill="#fefffe" d="M 147.5,183.5 C 163.832,184.327 168.999,192.327 163,207.5C 155.599,213.748 147.932,214.082 140,208.5C 133.762,197.39 136.262,189.057 147.5,183.5 Z"/></g>
<g><path style="opacity:0.942" fill="#fefffe" d="M 206.5,183.5 C 220.635,183.784 226.135,190.784 223,204.5C 217.803,212.575 210.637,214.742 201.5,211C 195.78,206.116 193.947,199.95 196,192.5C 198.463,188.198 201.963,185.198 206.5,183.5 Z"/></g>
<g><path style="opacity:0.938" fill="#fefffe" d="M 264.5,183.5 C 280.808,184.307 285.974,192.307 280,207.5C 275.078,212.202 269.245,213.702 262.5,212C 253.299,206.667 251.133,199.167 256,189.5C 258.322,186.605 261.155,184.605 264.5,183.5 Z"/></g>
<g><path style="opacity:0.935" fill="#fefffe" d="M 322.5,183.5 C 337.277,183.107 343.11,190.107 340,204.5C 335.605,212.103 329.105,214.603 320.5,212C 310.518,205.067 309.184,196.734 316.5,187C 318.727,186.059 320.727,184.892 322.5,183.5 Z"/></g>
<g><path style="opacity:0.938" fill="#fefffe" d="M 381.5,183.5 C 397.489,184.474 402.656,192.474 397,207.5C 392.078,212.202 386.245,213.702 379.5,212C 371.878,208.167 369.045,202.001 371,193.5C 373.106,188.557 376.606,185.224 381.5,183.5 Z"/></g>
<g><path style="opacity:0.933" fill="#fefffe" d="M 439.5,183.5 C 454.269,183.1 460.103,190.1 457,204.5C 452.605,212.103 446.105,214.603 437.5,212C 427.516,205.061 426.183,196.728 433.5,187C 435.432,185.541 437.432,184.375 439.5,183.5 Z"/></g>
<g><path style="opacity:0.933" fill="#fefffe" d="M 58.5,203.5 C 73.7986,202.625 79.9652,209.625 77,224.5C 71.1986,232.873 63.6986,234.707 54.5,230C 49.0831,224.756 47.5831,218.589 50,211.5C 52.0738,207.923 54.9072,205.256 58.5,203.5 Z"/></g>
<g><path style="opacity:0.939" fill="#fefffe" d="M 117.5,203.5 C 133.091,203.003 138.925,210.336 135,225.5C 126.333,234.833 117.667,234.833 109,225.5C 105.314,215.358 108.148,208.025 117.5,203.5 Z"/></g>
<g><path style="opacity:0.933" fill="#fefffe" d="M 175.5,203.5 C 190.267,202.428 196.433,209.095 194,223.5C 188.718,232.83 181.218,234.996 171.5,230C 165.999,224.831 164.499,218.664 167,211.5C 169.074,207.923 171.907,205.256 175.5,203.5 Z"/></g>
<g><path style="opacity:0.941" fill="#fefffe" d="M 234.5,203.5 C 250.721,203.548 256.221,211.214 251,226.5C 243.916,233.694 236.249,234.361 228,228.5C 221.607,217.673 223.774,209.339 234.5,203.5 Z"/></g>
<g><path style="opacity:0.936" fill="#fefffe" d="M 292.5,203.5 C 307.326,202.484 313.492,209.151 311,223.5C 305.718,232.83 298.218,234.996 288.5,230C 282.688,224.896 281.188,218.729 284,211.5C 286.074,207.923 288.907,205.256 292.5,203.5 Z"/></g>
<g><path style="opacity:0.938" fill="#fefffe" d="M 350.5,203.5 C 364.459,202.294 370.959,208.627 370,222.5C 363.855,233.373 355.522,235.373 345,228.5C 340.75,222.07 340.417,215.404 344,208.5C 346.326,206.934 348.492,205.268 350.5,203.5 Z"/></g>
<g><path style="opacity:0.939" fill="#fefffe" d="M 409.5,203.5 C 426.614,203.378 432.114,211.378 426,227.5C 419.766,233.008 412.933,233.841 405.5,230C 399.688,224.896 398.188,218.729 401,211.5C 403.074,207.923 405.907,205.256 409.5,203.5 Z"/></g>
<g><path style="opacity:0.885" fill="#fefffe" d="M 465.5,204.5 C 466.5,204.5 467.5,204.5 468.5,204.5C 469.86,213.791 470.86,223.124 471.5,232.5C 460.554,230.303 456.387,223.636 459,212.5C 460.305,209.039 462.471,206.372 465.5,204.5 Z"/></g>
<g><path style="opacity:0.934" fill="#fefffe" d="M 91.5,222.5 C 105.964,224.813 110.464,232.813 105,246.5C 96.3705,254.699 88.0371,254.366 80,245.5C 75.9451,233.608 79.7784,225.941 91.5,222.5 Z"/></g>
<g><path style="opacity:0.933" fill="#fefffe" d="M 149.5,222.5 C 163.413,224.312 168.246,231.978 164,245.5C 155.963,254.366 147.63,254.699 139,246.5C 133.738,234.41 137.238,226.41 149.5,222.5 Z"/></g>
<g><path style="opacity:0.938" fill="#fefffe" d="M 208.5,222.5 C 221.543,224.382 226.376,231.715 223,244.5C 214.79,254.64 206.124,254.973 197,245.5C 192.409,233.348 196.242,225.681 208.5,222.5 Z"/></g>
<g><path style="opacity:0.937" fill="#fefffe" d="M 266.5,222.5 C 281.135,224.768 285.635,232.768 280,246.5C 272,254.5 264,254.5 256,246.5C 250.738,234.41 254.238,226.41 266.5,222.5 Z"/></g>
<g><path style="opacity:0.937" fill="#fefffe" d="M 325.5,222.5 C 340.325,225.484 344.492,233.817 338,247.5C 328.178,255.029 319.845,253.696 313,243.5C 310.013,232.13 314.18,225.13 325.5,222.5 Z"/></g>
<g><path style="opacity:0.934" fill="#fefffe" d="M 383.5,222.5 C 398.135,224.768 402.635,232.768 397,246.5C 389,254.5 381,254.5 373,246.5C 367.559,234.394 371.059,226.394 383.5,222.5 Z"/></g>
<g><path style="opacity:0.935" fill="#fefffe" d="M 442.5,222.5 C 451.92,223.42 457.254,228.587 458.5,238C 457.599,247.067 452.599,251.901 443.5,252.5C 434.167,251.833 429.167,246.833 428.5,237.5C 429.811,229.194 434.478,224.194 442.5,222.5 Z"/></g>
<g><path style="opacity:0.43" fill="#fefffe" d="M 47.5,234.5 C 48.6291,236.628 48.7958,238.961 48,241.5C 47.5034,239.19 47.3367,236.857 47.5,234.5 Z"/></g>
<g><path style="opacity:0.932" fill="#fefffe" d="M 59.5,242.5 C 74.2768,242.107 80.1101,249.107 77,263.5C 72.605,271.103 66.105,273.603 57.5,271C 47.5158,264.061 46.1825,255.728 53.5,246C 55.4319,244.541 57.4319,243.375 59.5,242.5 Z"/></g>
<g><path style="opacity:0.938" fill="#fefffe" d="M 118.5,242.5 C 133.338,242.837 138.838,250.17 135,264.5C 130.532,271.085 124.365,273.252 116.5,271C 107.17,265.718 105.004,258.218 110,248.5C 112.322,245.605 115.155,243.605 118.5,242.5 Z"/></g>
<g><path style="opacity:0.934" fill="#fefffe" d="M 176.5,242.5 C 191.265,242.096 197.098,249.096 194,263.5C 189.523,270.886 183.023,273.386 174.5,271C 164.296,264.109 162.963,255.776 170.5,246C 172.432,244.541 174.432,243.375 176.5,242.5 Z"/></g>
<g><path style="opacity:0.938" fill="#fefffe" d="M 235.5,242.5 C 250.338,242.837 255.838,250.17 252,264.5C 247.532,271.085 241.365,273.252 233.5,271C 224.581,266.241 222.081,259.074 226,249.5C 228.529,246.115 231.696,243.782 235.5,242.5 Z"/></g>
<g><path style="opacity:0.938" fill="#fefffe" d="M 293.5,242.5 C 307.83,242.515 313.663,249.515 311,263.5C 305.685,271.453 298.518,273.619 289.5,270C 281.104,262.578 280.437,254.578 287.5,246C 289.432,244.541 291.432,243.375 293.5,242.5 Z"/></g>
<g><path style="opacity:0.939" fill="#fefffe" d="M 352.5,242.5 C 367.316,242.818 372.816,250.151 369,264.5C 362.874,272.01 355.374,273.51 346.5,269C 341.339,263.28 340.172,256.78 343,249.5C 345.529,246.115 348.696,243.782 352.5,242.5 Z"/></g>
<g><path style="opacity:0.941" fill="#fefffe" d="M 410.5,242.5 C 426.808,243.307 431.974,251.307 426,266.5C 421.078,271.202 415.245,272.702 408.5,271C 399.297,265.606 397.13,258.106 402,248.5C 404.322,245.605 407.155,243.605 410.5,242.5 Z"/></g>
<g><path style="opacity:0.899" fill="#fefffe" d="M 468.5,242.5 C 469.5,242.5 470.5,242.5 471.5,242.5C 471.867,252.349 470.867,262.015 468.5,271.5C 458.735,266.956 455.902,259.622 460,249.5C 462.416,246.577 465.25,244.243 468.5,242.5 Z"/></g>
<g><path style="opacity:0.927" fill="#fefffe" d="M 87.5,262.5 C 102.604,261.603 108.937,268.603 106.5,283.5C 97.177,282.932 87.8436,282.599 78.5,282.5C 76.6898,273.466 79.6898,266.799 87.5,262.5 Z"/></g>
<g><path style="opacity:0.935" fill="#fefffe" d="M 146.5,262.5 C 161.149,261.316 167.316,267.982 165,282.5C 164.535,283.931 163.701,285.097 162.5,286C 154.502,286.009 146.502,285.509 138.5,284.5C 134.451,274.616 137.118,267.282 146.5,262.5 Z"/></g>
<g><path style="opacity:0.936" fill="#fefffe" d="M 204.5,262.5 C 219.815,261.64 225.981,268.64 223,283.5C 222.535,284.931 221.701,286.097 220.5,287C 212.92,287.813 205.42,287.647 198,286.5C 192.973,276.331 195.14,268.331 204.5,262.5 Z"/></g>
<g><path style="opacity:0.95" fill="#fefffe" d="M 263.5,262.5 C 278.097,261.357 284.263,268.024 282,282.5C 281.365,283.966 280.531,285.3 279.5,286.5C 272.189,287.665 264.856,287.831 257.5,287C 250.74,276.63 252.74,268.464 263.5,262.5 Z"/></g>
<g><path style="opacity:0.932" fill="#fefffe" d="M 321.5,262.5 C 338.708,262.19 344.375,270.023 338.5,286C 332.323,286.382 326.156,286.882 320,287.5C 318.236,287.456 316.569,287.122 315,286.5C 309.544,276.374 311.711,268.374 321.5,262.5 Z"/></g>
<g><path style="opacity:0.929" fill="#fefffe" d="M 380.5,262.5 C 395.911,261.95 401.911,269.283 398.5,284.5C 389.577,284.825 380.743,284.825 372,284.5C 368.314,274.358 371.148,267.025 380.5,262.5 Z"/></g>
<g><path style="opacity:0.918" fill="#fefffe" d="M 438.5,262.5 C 451.486,260.996 457.986,266.663 458,279.5C 448.602,281.042 439.102,282.042 429.5,282.5C 427.117,273.318 430.117,266.652 438.5,262.5 Z"/></g>
<g><path style="opacity:0.954" fill="#fefffe" d="M -0.5,280.5 C 171.167,297.823 342.834,297.823 514.5,280.5C 514.5,286.167 514.5,291.833 514.5,297.5C 506.439,298.021 498.439,299.021 490.5,300.5C 469.404,373.093 424.738,425.593 356.5,458C 282.44,488.435 210.107,484.768 139.5,447C 83.0408,412.529 45.3741,363.529 26.5,300C 17.489,299.196 8.48902,298.363 -0.5,297.5C -0.5,291.833 -0.5,286.167 -0.5,280.5 Z M 433.5,304.5 C 428.177,310.613 427.344,317.28 431,324.5C 435.578,330.055 441.412,331.888 448.5,330C 450.848,329.654 452.681,328.487 454,326.5C 460.603,317.431 459.436,309.598 450.5,303C 454.711,301.917 458.378,302.75 461.5,305.5C 462.429,304.311 462.762,302.978 462.5,301.5C 464.833,301.5 467.167,301.5 469.5,301.5C 452.081,360.077 416.748,404.244 363.5,434C 293.337,469.592 223.337,469.259 153.5,433C 102.894,403.712 68.3935,361.212 50,305.5C 49.2195,304.056 49.3861,302.723 50.5,301.5C 52.4086,302.348 54.4086,302.682 56.5,302.5C 58.0168,311.903 63.0168,314.07 71.5,309C 73.5,307.667 75.1667,306 76.5,304C 78.9129,303.516 81.2462,303.85 83.5,305C 78.7409,309.491 77.2409,314.991 79,321.5C 83.7883,330.413 90.955,332.913 100.5,329C 108.551,322.263 109.551,314.596 103.5,306C 105.833,305.333 108.167,305.333 110.5,306C 117.554,312.866 124.887,313.199 132.5,307C 134.809,306.244 136.809,306.744 138.5,308.5C 134.71,316.712 136.377,323.545 143.5,329C 160.301,333.032 167.301,326.532 164.5,309.5C 165.833,309.167 167.167,308.833 168.5,308.5C 172.482,309.486 176.482,310.486 180.5,311.5C 183.324,311.17 185.991,310.336 188.5,309C 191.303,308.245 193.97,308.578 196.5,310C 193.534,325.369 199.867,332.036 215.5,330C 223.367,325.238 226.033,318.404 223.5,309.5C 228.623,309.291 233.623,309.958 238.5,311.5C 243.734,310.03 249.067,309.363 254.5,309.5C 251.393,325.131 257.726,331.964 273.5,330C 281.797,325.896 284.464,319.396 281.5,310.5C 286.916,309.241 292.249,309.574 297.5,311.5C 302.717,309.745 308.05,309.245 313.5,310C 309.576,322.309 314.076,329.143 327,330.5C 339.35,328.477 343.516,321.477 339.5,309.5C 340.833,309.167 342.167,308.833 343.5,308.5C 347.482,309.486 351.482,310.486 355.5,311.5C 360.275,310.843 364.775,309.51 369,307.5C 370.167,307.833 371.333,308.167 372.5,308.5C 368.353,317.891 370.686,325.057 379.5,330C 394.168,332.331 400.668,326.164 399,311.5C 398.293,309.919 397.46,308.419 396.5,307C 397.729,306.219 399.062,305.719 400.5,305.5C 404.657,308.576 409.324,310.576 414.5,311.5C 419.501,311.166 423.501,309 426.5,305C 428.81,304.503 431.143,304.337 433.5,304.5 Z"/></g>
<g><path style="opacity:0.587" fill="#fefffe" d="M 120.5,281.5 C 123.625,281.865 126.625,282.698 129.5,284C 124.833,284.667 120.167,284.667 115.5,284C 117.175,283.015 118.842,282.181 120.5,281.5 Z"/></g>
<g><path style="opacity:0.797" fill="#fefffe" d="M 178.5,281.5 C 183.343,281.365 187.343,283.032 190.5,286.5C 190.333,286.833 190.167,287.167 190,287.5C 183.581,286.687 177.081,286.187 170.5,286C 172.82,283.679 175.486,282.179 178.5,281.5 Z"/></g>
<g><path style="opacity:0.87" fill="#fefffe" d="M 237.5,281.5 C 242.545,281.69 246.878,283.523 250.5,287C 242.833,287.667 235.167,287.667 227.5,287C 230.489,284.343 233.822,282.509 237.5,281.5 Z"/></g>
<g><path style="opacity:0.79" fill="#fefffe" d="M 295.5,281.5 C 300.7,281.378 305.033,283.211 308.5,287C 301.144,287.831 293.811,287.665 286.5,286.5C 289.154,284.011 292.154,282.344 295.5,281.5 Z"/></g>
<g><path style="opacity:0.71" fill="#fefffe" d="M 353.5,281.5 C 357.54,281.591 361.207,282.758 364.5,285C 358.498,286.303 352.498,286.469 346.5,285.5C 348.482,283.436 350.816,282.103 353.5,281.5 Z"/></g>
<g><path style="opacity:0.28" fill="#fefffe" d="M 412.5,281.5 C 413.978,281.238 415.311,281.571 416.5,282.5C 414.235,283.647 411.902,283.814 409.5,283C 410.737,282.768 411.737,282.268 412.5,281.5 Z"/></g>
<g><path style="opacity:0.841" fill="#fefffe" d="M 63.5,321.5 C 76.0313,323.214 80.5313,330.214 77,342.5C 76.1667,343.5 75.3333,344.5 74.5,345.5C 69.7369,337.976 66.0703,329.976 63.5,321.5 Z"/></g>
<g><path style="opacity:0.94" fill="#fefffe" d="M 116.5,321.5 C 132.756,320.345 138.923,327.678 135,343.5C 126.333,352.833 117.667,352.833 109,343.5C 105.475,333.904 107.975,326.571 116.5,321.5 Z"/></g>
<g><path style="opacity:0.933" fill="#fefffe" d="M 175.5,321.5 C 193.137,321.29 198.637,329.29 192,345.5C 185.796,351.046 178.962,351.88 171.5,348C 162.601,337.563 163.934,328.73 175.5,321.5 Z"/></g>
<g><path style="opacity:0.943" fill="#fefffe" d="M 233.5,321.5 C 241.191,320.005 247.357,322.339 252,328.5C 255.681,338.298 252.847,345.465 243.5,350C 236.166,351.779 230.333,349.612 226,343.5C 222.106,333.785 224.606,326.451 233.5,321.5 Z"/></g>
<g><path style="opacity:0.939" fill="#fefffe" d="M 292.5,321.5 C 307.326,320.484 313.492,327.151 311,341.5C 305.667,350.701 298.167,352.867 288.5,348C 282.688,342.896 281.188,336.729 284,329.5C 286.074,325.923 288.907,323.256 292.5,321.5 Z"/></g>
<g><path style="opacity:0.937" fill="#fefffe" d="M 350.5,321.5 C 364.459,320.294 370.959,326.627 370,340.5C 363.855,351.373 355.522,353.373 345,346.5C 340.75,340.07 340.417,333.404 344,326.5C 345.965,324.45 348.132,322.783 350.5,321.5 Z"/></g>
<g><path style="opacity:0.939" fill="#fefffe" d="M 409.5,321.5 C 426.614,321.378 432.114,329.378 426,345.5C 419.766,351.008 412.933,351.841 405.5,348C 399.688,342.896 398.188,336.729 401,329.5C 403.098,325.897 405.932,323.23 409.5,321.5 Z"/></g>
<g><path style="opacity:0.926" fill="#fefffe" d="M 90.5,340.5 C 106.48,342.645 110.98,350.978 104,365.5C 99.4528,369.93 94.4528,370.93 89,368.5C 85.1192,363.237 81.6192,357.737 78.5,352C 80.4414,345.889 84.4414,342.056 90.5,340.5 Z"/></g>
<g><path style="opacity:0.936" fill="#fefffe" d="M 149.5,340.5 C 163.401,342.283 168.234,349.95 164,363.5C 154.876,372.973 146.21,372.64 138,362.5C 134.338,351.045 138.171,343.711 149.5,340.5 Z"/></g>
<g><path style="opacity:0.935" fill="#fefffe" d="M 207.5,340.5 C 221.273,341.702 226.44,349.036 223,362.5C 214.734,372.654 206.067,372.987 197,363.5C 192.46,351.923 195.96,344.256 207.5,340.5 Z"/></g>
<g><path style="opacity:0.933" fill="#fefffe" d="M 265.5,340.5 C 280.803,342.101 285.637,350.101 280,364.5C 273.531,371.384 266.364,372.217 258.5,367C 252.954,360.796 252.12,353.962 256,346.5C 258.843,343.837 262.009,341.837 265.5,340.5 Z"/></g>
<g><path style="opacity:0.935" fill="#fefffe" d="M 324.5,340.5 C 340.005,342.842 344.505,351.175 338,365.5C 329.349,372.614 321.349,371.947 314,363.5C 309.398,352.041 312.898,344.374 324.5,340.5 Z"/></g>
<g><path style="opacity:0.931" fill="#fefffe" d="M 382.5,340.5 C 397.803,342.101 402.637,350.101 397,364.5C 389,372.5 381,372.5 373,364.5C 367.615,352.955 370.781,344.955 382.5,340.5 Z"/></g>
<g><path style="opacity:0.859" fill="#fefffe" d="M 441.5,340.5 C 443.665,340.116 445.332,340.783 446.5,342.5C 442.333,350.172 437.666,357.505 432.5,364.5C 426.681,356.561 427.681,349.394 435.5,343C 437.611,342.155 439.611,341.322 441.5,340.5 Z"/></g>
<g><path style="opacity:0.938" fill="#fefffe" d="M 117.5,360.5 C 132.826,360.323 138.66,367.657 135,382.5C 130.532,389.085 124.365,391.252 116.5,389C 107.17,383.718 105.004,376.218 110,366.5C 112.114,363.879 114.614,361.879 117.5,360.5 Z"/></g>
<g><path style="opacity:0.934" fill="#fefffe" d="M 176.5,360.5 C 191.265,360.096 197.098,367.096 194,381.5C 188.714,389.463 181.547,391.63 172.5,388C 163.55,379.983 163.217,371.65 171.5,363C 173.315,362.243 174.981,361.41 176.5,360.5 Z"/></g>
<g><path style="opacity:0.938" fill="#fefffe" d="M 234.5,360.5 C 249.849,360.344 255.682,367.677 252,382.5C 245.874,390.01 238.374,391.51 229.5,387C 224.309,381.31 223.142,374.81 226,367.5C 228.441,364.546 231.275,362.213 234.5,360.5 Z"/></g>
<g><path style="opacity:0.935" fill="#fefffe" d="M 293.5,360.5 C 307.794,359.952 313.627,366.619 311,380.5C 306.212,389.413 299.045,391.913 289.5,388C 282.267,382.033 280.767,374.867 285,366.5C 287.322,363.605 290.155,361.605 293.5,360.5 Z"/></g>
<g><path style="opacity:0.941" fill="#fefffe" d="M 351.5,360.5 C 364.983,359.815 371.15,366.149 370,379.5C 364.846,389.842 357.013,392.342 346.5,387C 341.798,382.078 340.298,376.245 342,369.5C 344.406,365.592 347.572,362.592 351.5,360.5 Z"/></g>
<g><path style="opacity:0.919" fill="#fefffe" d="M 410.5,360.5 C 418.945,359.246 424.945,362.413 428.5,370C 425.382,374.786 421.882,379.286 418,383.5C 412.758,391.367 407.425,391.367 402,383.5C 397.253,372.898 400.087,365.231 410.5,360.5 Z"/></g>
<g><path style="opacity:0.938" fill="#fefffe" d="M 146.5,380.5 C 161.149,379.316 167.316,385.982 165,400.5C 159.667,409.701 152.167,411.867 142.5,407C 133.499,396.489 134.833,387.656 146.5,380.5 Z"/></g>
<g><path style="opacity:0.94" fill="#fefffe" d="M 204.5,380.5 C 221.183,380.009 227.016,387.675 222,403.5C 214.282,411.049 206.282,411.383 198,404.5C 192.973,394.331 195.14,386.331 204.5,380.5 Z"/></g>
<g><path style="opacity:0.936" fill="#fefffe" d="M 262.5,380.5 C 277.653,378.819 284.153,385.486 282,400.5C 276.574,409.7 269.074,411.867 259.5,407C 253.451,401.605 251.951,395.105 255,387.5C 257.069,384.594 259.569,382.261 262.5,380.5 Z"/></g>
<g><path style="opacity:0.935" fill="#fefffe" d="M 321.5,380.5 C 336.806,379.632 342.973,386.632 340,401.5C 334.966,409.066 328.133,411.233 319.5,408C 312.648,403.099 310.481,396.599 313,388.5C 315.074,384.923 317.907,382.256 321.5,380.5 Z"/></g>
<g><path style="opacity:0.938" fill="#fefffe" d="M 379.5,380.5 C 395.767,379.374 401.933,386.707 398,402.5C 392.054,409.864 384.888,411.364 376.5,407C 370.451,401.605 368.951,395.105 372,387.5C 374.015,384.588 376.515,382.255 379.5,380.5 Z"/></g>
<g><path style="opacity:0.761" fill="#fefffe" d="M 119.5,399.5 C 130.044,399.219 135.544,404.219 136,414.5C 132.078,411.789 128.244,408.955 124.5,406C 122.21,404.223 120.543,402.056 119.5,399.5 Z"/></g>
<g><path style="opacity:0.936" fill="#fefffe" d="M 177.5,399.5 C 192.523,400.672 197.69,408.338 193,422.5C 183.483,432.245 174.816,431.578 167,420.5C 164.134,410.232 167.634,403.232 177.5,399.5 Z"/></g>
<g><path style="opacity:0.935" fill="#fefffe" d="M 236.5,399.5 C 251.804,401.102 256.637,409.102 251,423.5C 243,431.5 235,431.5 227,423.5C 221.643,411.905 224.809,403.905 236.5,399.5 Z"/></g>
<g><path style="opacity:0.934" fill="#fefffe" d="M 294.5,399.5 C 309.546,400.69 314.712,408.356 310,422.5C 303.536,430.216 296.036,431.383 287.5,426C 281.565,419.221 281.065,412.055 286,404.5C 288.682,402.415 291.516,400.748 294.5,399.5 Z"/></g>
<g><path style="opacity:0.936" fill="#fefffe" d="M 353.5,399.5 C 363.917,399.256 369.584,404.256 370.5,414.5C 369.947,423.554 365.114,428.554 356,429.5C 342.126,426.578 338.126,418.578 344,405.5C 346.551,402.319 349.718,400.319 353.5,399.5 Z"/></g>
<g><path style="opacity:0.778" fill="#fefffe" d="M 147.5,419.5 C 156.393,418.256 162.393,421.756 165.5,430C 165.167,430.5 164.833,431 164.5,431.5C 158.008,428.757 152.008,425.257 146.5,421C 147.056,420.617 147.389,420.117 147.5,419.5 Z"/></g>
<g><path style="opacity:0.937" fill="#fefffe" d="M 205.5,419.5 C 221.736,419.56 227.236,427.227 222,442.5C 216.217,449.103 209.384,450.27 201.5,446C 198.619,444.749 196.786,442.583 196,439.5C 193.614,429.945 196.781,423.278 205.5,419.5 Z"/></g>
<g><path style="opacity:0.937" fill="#fefffe" d="M 263.5,419.5 C 280.294,419.788 285.794,427.788 280,443.5C 272.891,449.54 265.391,450.04 257.5,445C 250.66,434.332 252.66,425.832 263.5,419.5 Z"/></g>
<g><path style="opacity:0.921" fill="#fefffe" d="M 322.5,419.5 C 335.485,418.653 341.652,424.653 341,437.5C 333.976,440.953 326.643,443.62 319,445.5C 314.068,443.674 311.568,440.007 311.5,434.5C 312.053,427.008 315.719,422.008 322.5,419.5 Z"/></g>
<g><path style="opacity:0.897" fill="#fefffe" d="M 233.5,439.5 C 241.371,437.744 247.538,440.077 252,446.5C 252.977,448.74 253.477,451.073 253.5,453.5C 243.779,453.541 234.113,452.874 224.5,451.5C 225.256,445.752 228.256,441.752 233.5,439.5 Z"/></g>
<g><path style="opacity:0.889" fill="#fefffe" d="M 292.5,439.5 C 300.544,437.86 306.544,440.527 310.5,447.5C 301.328,450.539 291.995,451.872 282.5,451.5C 284.095,445.917 287.428,441.917 292.5,439.5 Z"/></g>
<g><path style="opacity:0.989" fill="#fefffe" d="M 401.5,458.5 C 402.499,514.998 402.832,571.664 402.5,628.5C 356.744,636.938 310.577,640.938 264,640.5C 222.288,640.635 180.788,637.801 139.5,632C 131.777,630.589 124.11,628.922 116.5,627C 115.169,571.568 115.169,516.068 116.5,460.5C 133.874,474.856 153.541,485.022 175.5,491C 216.948,501.837 258.948,504.504 301.5,499C 333.988,495.061 363.988,484.395 391.5,467C 395.025,464.302 398.358,461.469 401.5,458.5 Z"/></g>
<g><path style="opacity:0.994" fill="#fefffe" d="M 265.5,1050.5 C 261.5,1050.5 257.5,1050.5 253.5,1050.5C 202.444,1044.61 164.277,1019.28 139,974.5C 124.624,947.997 116.957,919.664 116,889.5C 115.5,813.834 115.333,738.167 115.5,662.5C 109.859,661.372 104.192,660.372 98.5,659.5C 98.1734,654.786 98.5067,650.12 99.5,645.5C 132.936,654.253 166.936,659.42 201.5,661C 264.497,664.627 327.164,661.627 389.5,652C 399.515,649.829 409.515,647.662 419.5,645.5C 419.5,650.167 419.5,654.833 419.5,659.5C 413.808,660.372 408.141,661.372 402.5,662.5C 402.667,740.167 402.5,817.834 402,895.5C 398.932,946.132 378.432,987.965 340.5,1021C 318.445,1038.41 293.445,1048.24 265.5,1050.5 Z"/></g>
</svg>
