<?xml version="1.0" encoding="UTF-8"?>
<svg width="40" height="40" version="1.1" viewBox="0 0 10.583 10.583" xmlns="http://www.w3.org/2000/svg">
 <path transform="rotate(45)" d="m1.4401-0.78891c-0.20146 0.20146-0.32558 0.48018-0.32558 0.78891 0 0.61747 0.49702 1.1145 1.1145 1.1145h4.1401v4.1401c0 0.61747 0.49702 1.1145 1.1145 1.1145s1.1145-0.49702 1.1145-1.1145v-4.1401h4.1401c0.61747 0 1.1145-0.49702 1.1145-1.1145 0-0.61747-0.49702-1.1145-1.1145-1.1145h-4.1401v-4.1401c0-0.61747-0.49702-1.1145-1.1145-1.1145s-1.1145 0.49702-1.1145 1.1145v4.1401h-4.1401c-0.30874 0-0.58746 0.12412-0.78891 0.32558z" fill="#2b1100" stroke-width=".26662"/>
</svg>
